<svg width="350" height="350" viewBox="0 0 350 350" fill="none" xmlns="http://www.w3.org/2000/svg">
<rect width="350" height="350" fill="white"/>
<rect width="250" height="250" transform="translate(50 50)" fill="white"/>
<path d="M215.8 80.3151C215.8 80.3151 177.305 66.6251 139.5 88.4201C101.695 110.215 82.6647 153.47 66.2947 188.12C49.9247 222.77 59.3447 258 88.1897 274.09C117.035 290.18 136.65 266.47 177.115 265.32C217.58 264.17 228.46 269.95 262.04 247.09C295.62 224.23 301.685 170.245 275.2 130.3C248.715 90.3551 215.8 80.3151 215.8 80.3151Z" fill="#3FA6A1"/>
<path opacity="0.7" d="M215.8 80.3151C215.8 80.3151 177.305 66.6251 139.5 88.4201C101.695 110.215 82.6647 153.47 66.2947 188.12C49.9247 222.77 59.3447 258 88.1897 274.09C117.035 290.18 136.65 266.47 177.115 265.32C217.58 264.17 228.46 269.95 262.04 247.09C295.62 224.23 301.685 170.245 275.2 130.3C248.715 90.3551 215.8 80.3151 215.8 80.3151Z" fill="white"/>
<path d="M218.185 116.075H66.2646V266.215H218.185V116.075Z" fill="white" stroke="#263238" stroke-linecap="round" stroke-linejoin="round"/>
<path d="M136.601 131.885H127.061V142.75H136.601V131.885Z" fill="white" stroke="#263238" stroke-linecap="round" stroke-linejoin="round"/>
<path d="M133.251 131.885H127.061V142.75H133.251V131.885Z" fill="white" stroke="#263238" stroke-linecap="round" stroke-linejoin="round"/>
<path d="M132.48 136.5H127.755V141.6H132.48V136.5Z" fill="#3FA6A1" stroke="#263238" stroke-linecap="round" stroke-linejoin="round"/>
<path d="M128.54 131.885H119V142.75H128.54V131.885Z" fill="white" stroke="#263238" stroke-linecap="round" stroke-linejoin="round"/>
<path d="M125.19 131.885H119V142.75H125.19V131.885Z" fill="white" stroke="#263238" stroke-linecap="round" stroke-linejoin="round"/>
<path d="M124.42 136.5H119.695V141.6H124.42V136.5Z" fill="#3FA6A1" stroke="#263238" stroke-linecap="round" stroke-linejoin="round"/>
<path d="M120.895 126.76H111.355V142.75H120.895V126.76Z" fill="#3FA6A1" stroke="#263238" stroke-linecap="round" stroke-linejoin="round"/>
<path d="M117.545 126.76H111.355V142.75H117.545V126.76Z" fill="white" stroke="#263238" stroke-linecap="round" stroke-linejoin="round"/>
<path d="M116.775 133.555H112.05V141.06H116.775V133.555Z" fill="#3FA6A1" stroke="#263238" stroke-linecap="round" stroke-linejoin="round"/>
<path d="M112.835 126.76H103.295V142.75H112.835V126.76Z" fill="#3FA6A1" stroke="#263238" stroke-linecap="round" stroke-linejoin="round"/>
<path d="M109.485 126.76H103.295V142.75H109.485V126.76Z" fill="#3FA6A1" stroke="#263238" stroke-linecap="round" stroke-linejoin="round"/>
<path d="M108.715 133.555H103.99V141.06H108.715V133.555Z" fill="white" stroke="#263238" stroke-linecap="round" stroke-linejoin="round"/>
<path d="M105.745 131.885H96.2051V142.75H105.745V131.885Z" fill="white" stroke="#263238" stroke-linecap="round" stroke-linejoin="round"/>
<path d="M102.395 131.885H96.2051V142.75H102.395V131.885Z" fill="white" stroke="#263238" stroke-linecap="round" stroke-linejoin="round"/>
<path d="M101.625 136.5H96.9004V141.6H101.625V136.5Z" fill="#3FA6A1" stroke="#263238" stroke-linecap="round" stroke-linejoin="round"/>
<path d="M97.6855 131.885H88.1455V142.75H97.6855V131.885Z" fill="white" stroke="#263238" stroke-linecap="round" stroke-linejoin="round"/>
<path d="M94.3355 131.885H88.1455V142.75H94.3355V131.885Z" fill="white" stroke="#263238" stroke-linecap="round" stroke-linejoin="round"/>
<path d="M93.5648 136.5H88.8398V141.6H93.5648V136.5Z" fill="#3FA6A1" stroke="#263238" stroke-linecap="round" stroke-linejoin="round"/>
<path d="M90.04 126.76H80.5V142.75H90.04V126.76Z" fill="white" stroke="#263238" stroke-linecap="round" stroke-linejoin="round"/>
<path d="M86.69 126.76H80.5V142.75H86.69V126.76Z" fill="white" stroke="#263238" stroke-linecap="round" stroke-linejoin="round"/>
<path d="M85.9203 133.555H81.1953V141.06H85.9203V133.555Z" fill="#3FA6A1" stroke="#263238" stroke-linecap="round" stroke-linejoin="round"/>
<path d="M81.9804 126.76H72.4404V142.75H81.9804V126.76Z" fill="white" stroke="#263238" stroke-linecap="round" stroke-linejoin="round"/>
<path d="M78.6304 126.76H72.4404V142.75H78.6304V126.76Z" fill="white" stroke="#263238" stroke-linecap="round" stroke-linejoin="round"/>
<path d="M77.8598 133.555H73.1348V141.06H77.8598V133.555Z" fill="#3FA6A1" stroke="#263238" stroke-linecap="round" stroke-linejoin="round"/>
<path d="M210.815 131.885H201.275V142.75H210.815V131.885Z" fill="white" stroke="#263238" stroke-linecap="round" stroke-linejoin="round"/>
<path d="M207.465 131.885H201.275V142.75H207.465V131.885Z" fill="white" stroke="#263238" stroke-linecap="round" stroke-linejoin="round"/>
<path d="M206.695 136.5H201.97V141.6H206.695V136.5Z" fill="#3FA6A1" stroke="#263238" stroke-linecap="round" stroke-linejoin="round"/>
<path d="M202.755 131.885H193.215V142.75H202.755V131.885Z" fill="white" stroke="#263238" stroke-linecap="round" stroke-linejoin="round"/>
<path d="M199.405 131.885H193.215V142.75H199.405V131.885Z" fill="white" stroke="#263238" stroke-linecap="round" stroke-linejoin="round"/>
<path d="M198.635 136.5H193.91V141.6H198.635V136.5Z" fill="#3FA6A1" stroke="#263238" stroke-linecap="round" stroke-linejoin="round"/>
<path d="M195.11 126.76H185.57V142.75H195.11V126.76Z" fill="#3FA6A1" stroke="#263238" stroke-linecap="round" stroke-linejoin="round"/>
<path d="M191.76 126.76H185.57V142.75H191.76V126.76Z" fill="white" stroke="#263238" stroke-linecap="round" stroke-linejoin="round"/>
<path d="M190.99 133.555H186.265V141.06H190.99V133.555Z" fill="#3FA6A1" stroke="#263238" stroke-linecap="round" stroke-linejoin="round"/>
<path d="M187.05 126.76H177.51V142.75H187.05V126.76Z" fill="#3FA6A1" stroke="#263238" stroke-linecap="round" stroke-linejoin="round"/>
<path d="M183.7 126.76H177.51V142.75H183.7V126.76Z" fill="#3FA6A1" stroke="#263238" stroke-linecap="round" stroke-linejoin="round"/>
<path d="M182.93 133.555H178.205V141.06H182.93V133.555Z" fill="white" stroke="#263238" stroke-linecap="round" stroke-linejoin="round"/>
<path d="M179.965 131.885H170.425V142.75H179.965V131.885Z" fill="white" stroke="#263238" stroke-linecap="round" stroke-linejoin="round"/>
<path d="M176.615 131.885H170.425V142.75H176.615V131.885Z" fill="white" stroke="#263238" stroke-linecap="round" stroke-linejoin="round"/>
<path d="M175.84 136.5H171.115V141.6H175.84V136.5Z" fill="#3FA6A1" stroke="#263238" stroke-linecap="round" stroke-linejoin="round"/>
<path d="M171.9 131.885H162.36V142.75H171.9V131.885Z" fill="white" stroke="#263238" stroke-linecap="round" stroke-linejoin="round"/>
<path d="M168.55 131.885H162.36V142.75H168.55V131.885Z" fill="white" stroke="#263238" stroke-linecap="round" stroke-linejoin="round"/>
<path d="M167.78 136.5H163.055V141.6H167.78V136.5Z" fill="#3FA6A1" stroke="#263238" stroke-linecap="round" stroke-linejoin="round"/>
<path d="M164.26 126.76H154.72V142.75H164.26V126.76Z" fill="white" stroke="#263238" stroke-linecap="round" stroke-linejoin="round"/>
<path d="M160.91 126.76H154.72V142.75H160.91V126.76Z" fill="white" stroke="#263238" stroke-linecap="round" stroke-linejoin="round"/>
<path d="M160.135 133.555H155.41V141.06H160.135V133.555Z" fill="#3FA6A1" stroke="#263238" stroke-linecap="round" stroke-linejoin="round"/>
<path d="M156.195 126.76H146.655V142.75H156.195V126.76Z" fill="white" stroke="#263238" stroke-linecap="round" stroke-linejoin="round"/>
<path d="M152.845 126.76H146.655V142.75H152.845V126.76Z" fill="white" stroke="#263238" stroke-linecap="round" stroke-linejoin="round"/>
<path d="M152.076 133.555H147.351V141.06H152.076V133.555Z" fill="#3FA6A1" stroke="#263238" stroke-linecap="round" stroke-linejoin="round"/>
<path d="M136.601 216.19H127.061V227.055H136.601V216.19Z" fill="white" stroke="#263238" stroke-linecap="round" stroke-linejoin="round"/>
<path d="M133.251 216.19H127.061V227.055H133.251V216.19Z" fill="white" stroke="#263238" stroke-linecap="round" stroke-linejoin="round"/>
<path d="M132.48 220.805H127.755V225.905H132.48V220.805Z" fill="#3FA6A1" stroke="#263238" stroke-linecap="round" stroke-linejoin="round"/>
<path d="M128.54 216.19H119V227.055H128.54V216.19Z" fill="white" stroke="#263238" stroke-linecap="round" stroke-linejoin="round"/>
<path d="M125.19 216.19H119V227.055H125.19V216.19Z" fill="white" stroke="#263238" stroke-linecap="round" stroke-linejoin="round"/>
<path d="M124.42 220.805H119.695V225.905H124.42V220.805Z" fill="#3FA6A1" stroke="#263238" stroke-linecap="round" stroke-linejoin="round"/>
<path d="M120.895 211.065H111.355V227.055H120.895V211.065Z" fill="#3FA6A1" stroke="#263238" stroke-linecap="round" stroke-linejoin="round"/>
<path d="M117.545 211.065H111.355V227.055H117.545V211.065Z" fill="white" stroke="#263238" stroke-linecap="round" stroke-linejoin="round"/>
<path d="M116.775 217.855H112.05V225.36H116.775V217.855Z" fill="#3FA6A1" stroke="#263238" stroke-linecap="round" stroke-linejoin="round"/>
<path d="M112.835 211.065H103.295V227.055H112.835V211.065Z" fill="#3FA6A1" stroke="#263238" stroke-linecap="round" stroke-linejoin="round"/>
<path d="M109.485 211.065H103.295V227.055H109.485V211.065Z" fill="#3FA6A1" stroke="#263238" stroke-linecap="round" stroke-linejoin="round"/>
<path d="M108.715 217.855H103.99V225.36H108.715V217.855Z" fill="white" stroke="#263238" stroke-linecap="round" stroke-linejoin="round"/>
<path d="M105.745 216.19H96.2051V227.055H105.745V216.19Z" fill="white" stroke="#263238" stroke-linecap="round" stroke-linejoin="round"/>
<path d="M102.395 216.19H96.2051V227.055H102.395V216.19Z" fill="white" stroke="#263238" stroke-linecap="round" stroke-linejoin="round"/>
<path d="M101.625 220.805H96.9004V225.905H101.625V220.805Z" fill="#3FA6A1" stroke="#263238" stroke-linecap="round" stroke-linejoin="round"/>
<path d="M97.6855 216.19H88.1455V227.055H97.6855V216.19Z" fill="white" stroke="#263238" stroke-linecap="round" stroke-linejoin="round"/>
<path d="M94.3355 216.19H88.1455V227.055H94.3355V216.19Z" fill="white" stroke="#263238" stroke-linecap="round" stroke-linejoin="round"/>
<path d="M93.5648 220.805H88.8398V225.905H93.5648V220.805Z" fill="#3FA6A1" stroke="#263238" stroke-linecap="round" stroke-linejoin="round"/>
<path d="M90.04 211.065H80.5V227.055H90.04V211.065Z" fill="white" stroke="#263238" stroke-linecap="round" stroke-linejoin="round"/>
<path d="M86.69 211.065H80.5V227.055H86.69V211.065Z" fill="white" stroke="#263238" stroke-linecap="round" stroke-linejoin="round"/>
<path d="M85.9203 217.855H81.1953V225.36H85.9203V217.855Z" fill="#3FA6A1" stroke="#263238" stroke-linecap="round" stroke-linejoin="round"/>
<path d="M81.9804 211.065H72.4404V227.055H81.9804V211.065Z" fill="white" stroke="#263238" stroke-linecap="round" stroke-linejoin="round"/>
<path d="M78.6304 211.065H72.4404V227.055H78.6304V211.065Z" fill="white" stroke="#263238" stroke-linecap="round" stroke-linejoin="round"/>
<path d="M77.8598 217.855H73.1348V225.36H77.8598V217.855Z" fill="#3FA6A1" stroke="#263238" stroke-linecap="round" stroke-linejoin="round"/>
<path d="M210.815 216.19H201.275V227.055H210.815V216.19Z" fill="white" stroke="#263238" stroke-linecap="round" stroke-linejoin="round"/>
<path d="M207.465 216.19H201.275V227.055H207.465V216.19Z" fill="white" stroke="#263238" stroke-linecap="round" stroke-linejoin="round"/>
<path d="M206.695 220.805H201.97V225.905H206.695V220.805Z" fill="#3FA6A1" stroke="#263238" stroke-linecap="round" stroke-linejoin="round"/>
<path d="M202.755 216.19H193.215V227.055H202.755V216.19Z" fill="white" stroke="#263238" stroke-linecap="round" stroke-linejoin="round"/>
<path d="M199.405 216.19H193.215V227.055H199.405V216.19Z" fill="white" stroke="#263238" stroke-linecap="round" stroke-linejoin="round"/>
<path d="M198.635 220.805H193.91V225.905H198.635V220.805Z" fill="#3FA6A1" stroke="#263238" stroke-linecap="round" stroke-linejoin="round"/>
<path d="M195.11 211.065H185.57V227.055H195.11V211.065Z" fill="#3FA6A1" stroke="#263238" stroke-linecap="round" stroke-linejoin="round"/>
<path d="M191.76 211.065H185.57V227.055H191.76V211.065Z" fill="white" stroke="#263238" stroke-linecap="round" stroke-linejoin="round"/>
<path d="M190.99 217.855H186.265V225.36H190.99V217.855Z" fill="#3FA6A1" stroke="#263238" stroke-linecap="round" stroke-linejoin="round"/>
<path d="M187.05 211.065H177.51V227.055H187.05V211.065Z" fill="#3FA6A1" stroke="#263238" stroke-linecap="round" stroke-linejoin="round"/>
<path d="M183.7 211.065H177.51V227.055H183.7V211.065Z" fill="#3FA6A1" stroke="#263238" stroke-linecap="round" stroke-linejoin="round"/>
<path d="M182.93 217.855H178.205V225.36H182.93V217.855Z" fill="white" stroke="#263238" stroke-linecap="round" stroke-linejoin="round"/>
<path d="M179.965 216.19H170.425V227.055H179.965V216.19Z" fill="white" stroke="#263238" stroke-linecap="round" stroke-linejoin="round"/>
<path d="M176.615 216.19H170.425V227.055H176.615V216.19Z" fill="white" stroke="#263238" stroke-linecap="round" stroke-linejoin="round"/>
<path d="M175.84 220.805H171.115V225.905H175.84V220.805Z" fill="#3FA6A1" stroke="#263238" stroke-linecap="round" stroke-linejoin="round"/>
<path d="M171.9 216.19H162.36V227.055H171.9V216.19Z" fill="white" stroke="#263238" stroke-linecap="round" stroke-linejoin="round"/>
<path d="M168.55 216.19H162.36V227.055H168.55V216.19Z" fill="white" stroke="#263238" stroke-linecap="round" stroke-linejoin="round"/>
<path d="M167.78 220.805H163.055V225.905H167.78V220.805Z" fill="#3FA6A1" stroke="#263238" stroke-linecap="round" stroke-linejoin="round"/>
<path d="M164.26 211.065H154.72V227.055H164.26V211.065Z" fill="white" stroke="#263238" stroke-linecap="round" stroke-linejoin="round"/>
<path d="M160.91 211.065H154.72V227.055H160.91V211.065Z" fill="white" stroke="#263238" stroke-linecap="round" stroke-linejoin="round"/>
<path d="M160.135 217.855H155.41V225.36H160.135V217.855Z" fill="#3FA6A1" stroke="#263238" stroke-linecap="round" stroke-linejoin="round"/>
<path d="M156.195 211.065H146.655V227.055H156.195V211.065Z" fill="white" stroke="#263238" stroke-linecap="round" stroke-linejoin="round"/>
<path d="M152.845 211.065H146.655V227.055H152.845V211.065Z" fill="white" stroke="#263238" stroke-linecap="round" stroke-linejoin="round"/>
<path d="M152.076 217.855H147.351V225.36H152.076V217.855Z" fill="#3FA6A1" stroke="#263238" stroke-linecap="round" stroke-linejoin="round"/>
<path d="M72.4998 158.685H75.6948C76.4135 158.685 77.1028 158.971 77.6111 159.479C78.1193 159.987 78.4048 160.676 78.4048 161.395V170.635H69.7998V161.395C69.7998 160.678 70.0839 159.99 70.59 159.482C71.0961 158.974 71.7828 158.688 72.4998 158.685Z" fill="#3FA6A1" stroke="#263238" stroke-linecap="round" stroke-linejoin="round"/>
<path d="M76.0548 155.35H72.5098V158.685H76.0548V155.35Z" fill="#263238" stroke="#263238" stroke-linecap="round" stroke-linejoin="round"/>
<path d="M76.0551 162.3H70.4951V167.86H76.0551V162.3Z" fill="white" stroke="#263238" stroke-linecap="round" stroke-linejoin="round"/>
<path d="M82.6553 158.685H85.8503C86.569 158.685 87.2583 158.971 87.7666 159.479C88.2748 159.987 88.5603 160.676 88.5603 161.395V170.635H79.9453V161.395C79.9453 161.039 80.0154 160.687 80.1516 160.358C80.2878 160.029 80.4874 159.73 80.7391 159.479C80.9907 159.227 81.2894 159.028 81.6182 158.891C81.947 158.755 82.2994 158.685 82.6553 158.685Z" fill="#3FA6A1" stroke="#263238" stroke-linecap="round" stroke-linejoin="round"/>
<path d="M86.2003 155.35H82.6553V158.685H86.2003V155.35Z" fill="#263238" stroke="#263238" stroke-linecap="round" stroke-linejoin="round"/>
<path d="M86.1996 162.3H80.6396V167.86H86.1996V162.3Z" fill="white" stroke="#263238" stroke-linecap="round" stroke-linejoin="round"/>
<path d="M92.7998 152.29H95.9998C96.7177 152.291 97.4057 152.577 97.9129 153.086C98.42 153.594 98.7048 154.282 98.7048 155V170.635H90.0898V155C90.0898 154.281 90.3754 153.592 90.8836 153.084C91.3918 152.576 92.0811 152.29 92.7998 152.29Z" fill="#3FA6A1" stroke="#263238" stroke-linecap="round" stroke-linejoin="round"/>
<path d="M96.3448 148.955H92.7998V152.29H96.3448V148.955Z" fill="#263238" stroke="#263238" stroke-linecap="round" stroke-linejoin="round"/>
<path d="M96.3452 155.905H90.7852V167.855H96.3452V155.905Z" fill="white" stroke="#263238" stroke-linecap="round" stroke-linejoin="round"/>
<path d="M102.945 158.685H106.14C106.859 158.685 107.548 158.971 108.057 159.479C108.565 159.987 108.85 160.676 108.85 161.395V170.635H100.235V161.395C100.235 160.676 100.521 159.987 101.029 159.479C101.537 158.971 102.227 158.685 102.945 158.685Z" fill="#3FA6A1" stroke="#263238" stroke-linecap="round" stroke-linejoin="round"/>
<path d="M106.49 155.35H102.945V158.685H106.49V155.35Z" fill="#263238" stroke="#263238" stroke-linecap="round" stroke-linejoin="round"/>
<path d="M106.49 162.3H100.93V167.86H106.49V162.3Z" fill="white" stroke="#263238" stroke-linecap="round" stroke-linejoin="round"/>
<path d="M113.09 158.685H116.285C117.004 158.685 117.693 158.971 118.201 159.479C118.709 159.987 118.995 160.676 118.995 161.395V170.635H110.38V161.395C110.38 160.676 110.665 159.987 111.174 159.479C111.682 158.971 112.371 158.685 113.09 158.685Z" fill="#3FA6A1" stroke="#263238" stroke-linecap="round" stroke-linejoin="round"/>
<path d="M116.635 155.35H113.09V158.685H116.635V155.35Z" fill="#263238" stroke="#263238" stroke-linecap="round" stroke-linejoin="round"/>
<path d="M116.635 162.3H111.075V167.86H116.635V162.3Z" fill="white" stroke="#263238" stroke-linecap="round" stroke-linejoin="round"/>
<path d="M123.24 155.35H126.435C127.154 155.35 127.843 155.636 128.352 156.144C128.86 156.652 129.145 157.341 129.145 158.06V170.64H120.525V158.06C120.525 157.704 120.596 157.351 120.732 157.022C120.869 156.693 121.069 156.394 121.321 156.142C121.573 155.89 121.872 155.691 122.202 155.555C122.531 155.419 122.884 155.349 123.24 155.35Z" fill="#3FA6A1" stroke="#263238" stroke-linecap="round" stroke-linejoin="round"/>
<path d="M126.785 152.015H123.24V155.35H126.785V152.015Z" fill="#263238" stroke="#263238" stroke-linecap="round" stroke-linejoin="round"/>
<path d="M126.78 158.96H121.22V167.855H126.78V158.96Z" fill="white" stroke="#263238" stroke-linecap="round" stroke-linejoin="round"/>
<path d="M150.225 158.685H153.42C154.139 158.685 154.828 158.971 155.336 159.479C155.844 159.987 156.13 160.676 156.13 161.395V170.635H147.5V161.395C147.5 161.038 147.571 160.684 147.708 160.355C147.845 160.025 148.046 159.725 148.299 159.474C148.552 159.222 148.853 159.022 149.183 158.887C149.514 158.752 149.868 158.683 150.225 158.685Z" fill="#3FA6A1" stroke="#263238" stroke-linecap="round" stroke-linejoin="round"/>
<path d="M153.771 155.35H150.226V158.685H153.771V155.35Z" fill="#263238" stroke="#263238" stroke-linecap="round" stroke-linejoin="round"/>
<path d="M153.77 162.3H148.21V167.86H153.77V162.3Z" fill="white" stroke="#263238" stroke-linecap="round" stroke-linejoin="round"/>
<path d="M160.37 158.685H163.565C164.284 158.685 164.973 158.971 165.481 159.479C165.99 159.987 166.275 160.676 166.275 161.395V170.635H157.66V161.395C157.66 160.676 157.946 159.987 158.454 159.479C158.962 158.971 159.651 158.685 160.37 158.685Z" fill="#3FA6A1" stroke="#263238" stroke-linecap="round" stroke-linejoin="round"/>
<path d="M163.915 155.35H160.37V158.685H163.915V155.35Z" fill="#263238" stroke="#263238" stroke-linecap="round" stroke-linejoin="round"/>
<path d="M163.915 162.3H158.355V167.86H163.915V162.3Z" fill="white" stroke="#263238" stroke-linecap="round" stroke-linejoin="round"/>
<path d="M170.501 152.29H173.696C174.414 152.29 175.104 152.576 175.612 153.084C176.12 153.592 176.406 154.281 176.406 155V170.635H167.811V155C167.811 154.285 168.093 153.598 168.597 153.091C169.101 152.583 169.785 152.295 170.501 152.29Z" fill="#3FA6A1" stroke="#263238" stroke-linecap="round" stroke-linejoin="round"/>
<path d="M174.066 148.955H170.521V152.29H174.066V148.955Z" fill="#263238" stroke="#263238" stroke-linecap="round" stroke-linejoin="round"/>
<path d="M174.065 155.905H168.505V167.855H174.065V155.905Z" fill="white" stroke="#263238" stroke-linecap="round" stroke-linejoin="round"/>
<path d="M180.665 158.685H183.86C184.216 158.685 184.568 158.755 184.897 158.891C185.226 159.028 185.525 159.227 185.776 159.479C186.028 159.73 186.228 160.029 186.364 160.358C186.5 160.687 186.57 161.039 186.57 161.395V170.635H177.955V161.395C177.955 160.676 178.241 159.987 178.749 159.479C179.257 158.971 179.946 158.685 180.665 158.685Z" fill="#3FA6A1" stroke="#263238" stroke-linecap="round" stroke-linejoin="round"/>
<path d="M184.21 155.35H180.665V158.685H184.21V155.35Z" fill="#263238" stroke="#263238" stroke-linecap="round" stroke-linejoin="round"/>
<path d="M184.21 162.3H178.65V167.86H184.21V162.3Z" fill="white" stroke="#263238" stroke-linecap="round" stroke-linejoin="round"/>
<path d="M190.811 158.685H194.001C194.356 158.685 194.709 158.755 195.038 158.891C195.366 159.028 195.665 159.227 195.917 159.479C196.168 159.73 196.368 160.029 196.504 160.358C196.64 160.687 196.711 161.039 196.711 161.395V170.635H188.101V161.395C188.101 160.676 188.386 159.987 188.894 159.479C189.403 158.971 190.092 158.685 190.811 158.685Z" fill="#3FA6A1" stroke="#263238" stroke-linecap="round" stroke-linejoin="round"/>
<path d="M194.356 155.35H190.811V158.685H194.356V155.35Z" fill="#263238" stroke="#263238" stroke-linecap="round" stroke-linejoin="round"/>
<path d="M194.355 162.3H188.795V167.86H194.355V162.3Z" fill="white" stroke="#263238" stroke-linecap="round" stroke-linejoin="round"/>
<path d="M200.955 155.35H204.15C204.869 155.35 205.558 155.636 206.066 156.144C206.575 156.652 206.86 157.341 206.86 158.06V170.64H198.245V158.06C198.245 157.341 198.531 156.652 199.039 156.144C199.547 155.636 200.236 155.35 200.955 155.35Z" fill="#3FA6A1" stroke="#263238" stroke-linecap="round" stroke-linejoin="round"/>
<path d="M204.5 152.015H200.955V155.35H204.5V152.015Z" fill="#263238" stroke="#263238" stroke-linecap="round" stroke-linejoin="round"/>
<path d="M204.5 158.96H198.94V167.855H204.5V158.96Z" fill="white" stroke="#263238" stroke-linecap="round" stroke-linejoin="round"/>
<path d="M72.4998 243.71H75.6948C76.4135 243.71 77.1028 243.996 77.6111 244.504C78.1193 245.012 78.4048 245.701 78.4048 246.42V255.66H69.7998V246.42C69.7998 245.703 70.0839 245.015 70.59 244.507C71.0961 244 71.7828 243.713 72.4998 243.71Z" fill="#3FA6A1" stroke="#263238" stroke-linecap="round" stroke-linejoin="round"/>
<path d="M76.0548 240.375H72.5098V243.71H76.0548V240.375Z" fill="#263238" stroke="#263238" stroke-linecap="round" stroke-linejoin="round"/>
<path d="M76.0551 247.32H70.4951V252.88H76.0551V247.32Z" fill="white" stroke="#263238" stroke-linecap="round" stroke-linejoin="round"/>
<path d="M82.6553 243.71H85.8503C86.569 243.71 87.2583 243.996 87.7666 244.504C88.2748 245.012 88.5603 245.701 88.5603 246.42V255.66H79.9453V246.42C79.9453 246.064 80.0154 245.712 80.1516 245.383C80.2878 245.054 80.4874 244.756 80.7391 244.504C80.9907 244.252 81.2894 244.053 81.6182 243.916C81.947 243.78 82.2994 243.71 82.6553 243.71Z" fill="#3FA6A1" stroke="#263238" stroke-linecap="round" stroke-linejoin="round"/>
<path d="M86.2003 240.375H82.6553V243.71H86.2003V240.375Z" fill="#263238" stroke="#263238" stroke-linecap="round" stroke-linejoin="round"/>
<path d="M86.1996 247.32H80.6396V252.88H86.1996V247.32Z" fill="white" stroke="#263238" stroke-linecap="round" stroke-linejoin="round"/>
<path d="M92.7998 237.315H95.9998C96.7186 237.315 97.4079 237.601 97.9161 238.109C98.4243 238.617 98.7098 239.306 98.7098 240.025V255.66H90.0898V240.025C90.0898 239.306 90.3754 238.617 90.8836 238.109C91.3918 237.601 92.0811 237.315 92.7998 237.315Z" fill="#3FA6A1" stroke="#263238" stroke-linecap="round" stroke-linejoin="round"/>
<path d="M96.3448 233.98H92.7998V237.315H96.3448V233.98Z" fill="#263238" stroke="#263238" stroke-linecap="round" stroke-linejoin="round"/>
<path d="M96.3452 240.93H90.7852V252.88H96.3452V240.93Z" fill="white" stroke="#263238" stroke-linecap="round" stroke-linejoin="round"/>
<path d="M102.945 243.71H106.14C106.859 243.71 107.548 243.996 108.057 244.504C108.565 245.012 108.85 245.701 108.85 246.42V255.66H100.235V246.42C100.235 245.701 100.521 245.012 101.029 244.504C101.537 243.996 102.227 243.71 102.945 243.71Z" fill="#3FA6A1" stroke="#263238" stroke-linecap="round" stroke-linejoin="round"/>
<path d="M106.49 240.375H102.945V243.71H106.49V240.375Z" fill="#263238" stroke="#263238" stroke-linecap="round" stroke-linejoin="round"/>
<path d="M106.49 247.32H100.93V252.88H106.49V247.32Z" fill="white" stroke="#263238" stroke-linecap="round" stroke-linejoin="round"/>
<path d="M113.09 243.71H116.285C117.004 243.71 117.693 243.996 118.201 244.504C118.709 245.012 118.995 245.701 118.995 246.42V255.66H110.38V246.42C110.38 245.701 110.665 245.012 111.174 244.504C111.682 243.996 112.371 243.71 113.09 243.71Z" fill="#3FA6A1" stroke="#263238" stroke-linecap="round" stroke-linejoin="round"/>
<path d="M116.635 240.375H113.09V243.71H116.635V240.375Z" fill="#263238" stroke="#263238" stroke-linecap="round" stroke-linejoin="round"/>
<path d="M116.635 247.32H111.075V252.88H116.635V247.32Z" fill="white" stroke="#263238" stroke-linecap="round" stroke-linejoin="round"/>
<path d="M123.24 240.375H126.435C127.154 240.375 127.843 240.661 128.352 241.169C128.86 241.677 129.145 242.366 129.145 243.085V255.665H120.525V243.085C120.525 242.729 120.596 242.376 120.732 242.047C120.869 241.718 121.069 241.419 121.321 241.167C121.573 240.915 121.872 240.716 122.202 240.58C122.531 240.444 122.884 240.374 123.24 240.375Z" fill="#3FA6A1" stroke="#263238" stroke-linecap="round" stroke-linejoin="round"/>
<path d="M126.785 237.04H123.24V240.375H126.785V237.04Z" fill="#263238" stroke="#263238" stroke-linecap="round" stroke-linejoin="round"/>
<path d="M126.78 243.985H121.22V252.88H126.78V243.985Z" fill="white" stroke="#263238" stroke-linecap="round" stroke-linejoin="round"/>
<path d="M150.225 243.71H153.42C154.139 243.71 154.828 243.996 155.336 244.504C155.844 245.012 156.13 245.701 156.13 246.42V255.66H147.5V246.42C147.5 246.063 147.571 245.709 147.708 245.379C147.845 245.05 148.046 244.75 148.299 244.498C148.552 244.247 148.853 244.047 149.183 243.912C149.514 243.777 149.868 243.708 150.225 243.71Z" fill="#3FA6A1" stroke="#263238" stroke-linecap="round" stroke-linejoin="round"/>
<path d="M153.771 240.375H150.226V243.71H153.771V240.375Z" fill="#263238" stroke="#263238" stroke-linecap="round" stroke-linejoin="round"/>
<path d="M153.77 247.32H148.21V252.88H153.77V247.32Z" fill="white" stroke="#263238" stroke-linecap="round" stroke-linejoin="round"/>
<path d="M160.37 243.71H163.565C164.284 243.71 164.973 243.996 165.481 244.504C165.99 245.012 166.275 245.701 166.275 246.42V255.66H157.66V246.42C157.66 245.701 157.946 245.012 158.454 244.504C158.962 243.996 159.651 243.71 160.37 243.71Z" fill="#3FA6A1" stroke="#263238" stroke-linecap="round" stroke-linejoin="round"/>
<path d="M163.915 240.375H160.37V243.71H163.915V240.375Z" fill="#263238" stroke="#263238" stroke-linecap="round" stroke-linejoin="round"/>
<path d="M163.915 247.32H158.355V252.88H163.915V247.32Z" fill="white" stroke="#263238" stroke-linecap="round" stroke-linejoin="round"/>
<path d="M170.501 237.315H173.696C174.414 237.315 175.104 237.601 175.612 238.109C176.12 238.617 176.406 239.306 176.406 240.025V255.66H167.811V240.025C167.811 239.31 168.093 238.624 168.597 238.116C169.101 237.608 169.785 237.32 170.501 237.315Z" fill="#3FA6A1" stroke="#263238" stroke-linecap="round" stroke-linejoin="round"/>
<path d="M174.066 233.98H170.521V237.315H174.066V233.98Z" fill="#263238" stroke="#263238" stroke-linecap="round" stroke-linejoin="round"/>
<path d="M174.065 240.93H168.505V252.88H174.065V240.93Z" fill="white" stroke="#263238" stroke-linecap="round" stroke-linejoin="round"/>
<path d="M180.665 243.71H183.86C184.216 243.71 184.568 243.78 184.897 243.916C185.226 244.053 185.525 244.252 185.776 244.504C186.028 244.756 186.228 245.054 186.364 245.383C186.5 245.712 186.57 246.064 186.57 246.42V255.66H177.955V246.42C177.955 245.701 178.241 245.012 178.749 244.504C179.257 243.996 179.946 243.71 180.665 243.71Z" fill="#3FA6A1" stroke="#263238" stroke-linecap="round" stroke-linejoin="round"/>
<path d="M184.21 240.375H180.665V243.71H184.21V240.375Z" fill="#263238" stroke="#263238" stroke-linecap="round" stroke-linejoin="round"/>
<path d="M184.21 247.32H178.65V252.88H184.21V247.32Z" fill="white" stroke="#263238" stroke-linecap="round" stroke-linejoin="round"/>
<path d="M190.811 243.71H194.001C194.356 243.71 194.709 243.78 195.038 243.916C195.366 244.053 195.665 244.252 195.917 244.504C196.168 244.756 196.368 245.054 196.504 245.383C196.64 245.712 196.711 246.064 196.711 246.42V255.66H188.101V246.42C188.101 245.701 188.386 245.012 188.894 244.504C189.403 243.996 190.092 243.71 190.811 243.71Z" fill="#3FA6A1" stroke="#263238" stroke-linecap="round" stroke-linejoin="round"/>
<path d="M194.356 240.375H190.811V243.71H194.356V240.375Z" fill="#263238" stroke="#263238" stroke-linecap="round" stroke-linejoin="round"/>
<path d="M194.355 247.32H188.795V252.88H194.355V247.32Z" fill="white" stroke="#263238" stroke-linecap="round" stroke-linejoin="round"/>
<path d="M200.955 240.375H204.15C204.869 240.375 205.558 240.661 206.066 241.169C206.575 241.677 206.86 242.366 206.86 243.085V255.665H198.245V243.085C198.245 242.366 198.531 241.677 199.039 241.169C199.547 240.661 200.236 240.375 200.955 240.375Z" fill="#3FA6A1" stroke="#263238" stroke-linecap="round" stroke-linejoin="round"/>
<path d="M204.5 237.04H200.955V240.375H204.5V237.04Z" fill="#263238" stroke="#263238" stroke-linecap="round" stroke-linejoin="round"/>
<path d="M204.5 243.985H198.94V252.88H204.5V243.985Z" fill="white" stroke="#263238" stroke-linecap="round" stroke-linejoin="round"/>
<path d="M78.4553 181.705H70.5303L72.5103 198.715H76.4753L78.4553 181.705Z" fill="white" stroke="#263238" stroke-linecap="round" stroke-linejoin="round"/>
<path d="M72.1953 196.01L72.5103 198.715H76.4753L76.7903 196.01H72.1953Z" fill="#263238" stroke="#263238" stroke-linecap="round" stroke-linejoin="round"/>
<path d="M75.9403 184.99H72.6553V193.11H75.9403V184.99Z" fill="#3FA6A1" stroke="#263238" stroke-linecap="round" stroke-linejoin="round"/>
<path d="M88.1253 181.705H80.1953L82.1803 198.715H86.1403L88.1253 181.705Z" fill="white" stroke="#263238" stroke-linecap="round" stroke-linejoin="round"/>
<path d="M81.8652 196.01L82.1802 198.715H86.1402L86.4552 196.01H81.8652Z" fill="#263238" stroke="#263238" stroke-linecap="round" stroke-linejoin="round"/>
<path d="M85.6102 184.99H82.3252V193.11H85.6102V184.99Z" fill="#3FA6A1" stroke="#263238" stroke-linecap="round" stroke-linejoin="round"/>
<path d="M97.7904 181.705H89.8604L91.8454 198.715H95.8054L97.7904 181.705Z" fill="white" stroke="#263238" stroke-linecap="round" stroke-linejoin="round"/>
<path d="M91.5303 196.01L91.8453 198.715H95.8053L96.1253 196.01H91.5303Z" fill="#263238" stroke="#263238" stroke-linecap="round" stroke-linejoin="round"/>
<path d="M95.2752 184.99H91.9902V193.11H95.2752V184.99Z" fill="#3FA6A1" stroke="#263238" stroke-linecap="round" stroke-linejoin="round"/>
<path d="M107.455 181.705H99.5303L101.51 198.715H105.475L107.455 181.705Z" fill="white" stroke="#263238" stroke-linecap="round" stroke-linejoin="round"/>
<path d="M101.195 196.01L101.51 198.715H105.475L105.79 196.01H101.195Z" fill="#263238" stroke="#263238" stroke-linecap="round" stroke-linejoin="round"/>
<path d="M104.94 184.99H101.655V193.11H104.94V184.99Z" fill="#3FA6A1" stroke="#263238" stroke-linecap="round" stroke-linejoin="round"/>
<path d="M118.17 189.63H109.79V192.53H118.17V189.63Z" fill="#263238" stroke="#263238" stroke-linecap="round" stroke-linejoin="round"/>
<path d="M119.446 192.53H108.521V198.91H119.446V192.53Z" fill="#3FA6A1" stroke="#263238" stroke-linecap="round" stroke-linejoin="round"/>
<path d="M117.905 193.885H110.05V197.56H117.905V193.885Z" fill="white" stroke="#263238" stroke-linecap="round" stroke-linejoin="round"/>
<path d="M130.545 189.63H122.165V192.53H130.545V189.63Z" fill="#263238" stroke="#263238" stroke-linecap="round" stroke-linejoin="round"/>
<path d="M131.815 192.53H120.89V198.91H131.815V192.53Z" fill="#3FA6A1" stroke="#263238" stroke-linecap="round" stroke-linejoin="round"/>
<path d="M130.28 193.885H122.425V197.56H130.28V193.885Z" fill="white" stroke="#263238" stroke-linecap="round" stroke-linejoin="round"/>
<path d="M155.785 181.705H147.86L149.84 198.715H153.805L155.785 181.705Z" fill="white" stroke="#263238" stroke-linecap="round" stroke-linejoin="round"/>
<path d="M149.525 196.01L149.84 198.715H153.805L154.12 196.01H149.525Z" fill="#263238" stroke="#263238" stroke-linecap="round" stroke-linejoin="round"/>
<path d="M153.27 184.99H149.985V193.11H153.27V184.99Z" fill="#3FA6A1" stroke="#263238" stroke-linecap="round" stroke-linejoin="round"/>
<path d="M165.455 181.705H157.525L159.51 198.715H163.47L165.455 181.705Z" fill="white" stroke="#263238" stroke-linecap="round" stroke-linejoin="round"/>
<path d="M159.195 196.01L159.51 198.715H163.47L163.785 196.01H159.195Z" fill="#263238" stroke="#263238" stroke-linecap="round" stroke-linejoin="round"/>
<path d="M162.94 184.99H159.655V193.11H162.94V184.99Z" fill="#3FA6A1" stroke="#263238" stroke-linecap="round" stroke-linejoin="round"/>
<path d="M175.12 181.705H167.195L169.175 198.715H173.14L175.12 181.705Z" fill="white" stroke="#263238" stroke-linecap="round" stroke-linejoin="round"/>
<path d="M168.86 196.01L169.175 198.715H173.14L173.455 196.01H168.86Z" fill="#263238" stroke="#263238" stroke-linecap="round" stroke-linejoin="round"/>
<path d="M172.605 184.99H169.32V193.11H172.605V184.99Z" fill="#3FA6A1" stroke="#263238" stroke-linecap="round" stroke-linejoin="round"/>
<path d="M184.785 181.705H176.86L178.84 198.715H182.805L184.785 181.705Z" fill="white" stroke="#263238" stroke-linecap="round" stroke-linejoin="round"/>
<path d="M178.525 196.01L178.84 198.715H182.805L183.12 196.01H178.525Z" fill="#263238" stroke="#263238" stroke-linecap="round" stroke-linejoin="round"/>
<path d="M182.27 184.99H178.985V193.11H182.27V184.99Z" fill="#3FA6A1" stroke="#263238" stroke-linecap="round" stroke-linejoin="round"/>
<path d="M195.5 189.63H187.12V192.53H195.5V189.63Z" fill="#263238" stroke="#263238" stroke-linecap="round" stroke-linejoin="round"/>
<path d="M196.776 192.53H185.851V198.91H196.776V192.53Z" fill="#3FA6A1" stroke="#263238" stroke-linecap="round" stroke-linejoin="round"/>
<path d="M195.24 193.885H187.385V197.56H195.24V193.885Z" fill="white" stroke="#263238" stroke-linecap="round" stroke-linejoin="round"/>
<path d="M207.875 189.63H199.495V192.53H207.875V189.63Z" fill="#263238" stroke="#263238" stroke-linecap="round" stroke-linejoin="round"/>
<path d="M209.145 192.53H198.22V198.91H209.145V192.53Z" fill="#3FA6A1" stroke="#263238" stroke-linecap="round" stroke-linejoin="round"/>
<path d="M207.61 193.885H199.755V197.56H207.61V193.885Z" fill="white" stroke="#263238" stroke-linecap="round" stroke-linejoin="round"/>
<path d="M218.045 145.78V142.16H67.1349V145.78H218.045Z" fill="white" stroke="#263238" stroke-linecap="round" stroke-linejoin="round"/>
<path d="M218.05 174.005V170.385H67.1398V174.005H218.05Z" fill="white" stroke="#263238" stroke-linecap="round" stroke-linejoin="round"/>
<path d="M218.045 202.235V198.615H67.1349V202.235H218.045Z" fill="white" stroke="#263238" stroke-linecap="round" stroke-linejoin="round"/>
<path d="M218.045 230.465V226.845H67.1349V230.465H218.045Z" fill="white" stroke="#263238" stroke-linecap="round" stroke-linejoin="round"/>
<path d="M218.05 258.39V254.77H67.1398V258.39H218.05Z" fill="white" stroke="#263238" stroke-linecap="round" stroke-linejoin="round"/>
<path d="M67.8602 120.81H64.2402V267.015H67.8602V120.81Z" fill="white" stroke="#263238" stroke-linecap="round" stroke-linejoin="round"/>
<path d="M143.86 120.81H140.24V267.015H143.86V120.81Z" fill="white" stroke="#263238" stroke-linecap="round" stroke-linejoin="round"/>
<path d="M219.86 120.81H216.24V267.015H219.86V120.81Z" fill="white" stroke="#263238" stroke-linecap="round" stroke-linejoin="round"/>
<path d="M221.305 105.61H60.6201V121.17H221.305V105.61Z" fill="#3FA6A1" stroke="#263238" stroke-linecap="round" stroke-linejoin="round"/>
<path d="M174.26 105.61H107.67V121.17H174.26V105.61Z" fill="white" stroke="#263238" stroke-linecap="round" stroke-linejoin="round"/>
<path d="M88.7255 111.57H85.3605V108.2H81.8905V111.57H78.5205V115.04H81.8905V118.405H85.3605V115.04H88.7255V111.57Z" fill="white"/>
<path d="M202.415 111.57H199.05V108.2H195.58V111.57H192.21V115.04H195.58V118.405H199.05V115.04H202.415V111.57Z" fill="white"/>
<path d="M118.09 108C119.81 108 120.545 109 120.545 110.675V112C120.545 113.735 119.735 114.64 117.995 114.64H116.92V118.96H115.7V108H118.09ZM118 113.535C118.91 113.535 119.345 113.115 119.345 112.065V110.61C119.345 109.61 118.985 109.11 118.095 109.11H116.925V113.535H118Z" fill="#3FA6A1"/>
<path d="M122.77 114V118.93H121.55V108H122.77V112.925H125.46V108H126.68V118.95H125.46V114H122.77Z" fill="#3FA6A1"/>
<path d="M129.165 116.745L128.745 118.95H127.62L129.715 108H131.5L133.595 118.95H132.375L131.955 116.745H129.165ZM129.325 115.695H131.765L130.525 109.375L129.325 115.695Z" fill="#3FA6A1"/>
<path d="M136.97 108C138.695 108 139.41 108.875 139.41 110.5V111.395C139.41 112.6 138.99 113.35 138.05 113.645C139.05 113.945 139.43 114.755 139.43 115.93V117.635C139.394 118.084 139.468 118.536 139.645 118.95H138.41C138.24 118.528 138.172 118.073 138.21 117.62V115.9C138.21 114.665 137.63 114.27 136.615 114.27H135.75V118.95H134.535V108H136.97ZM136.66 113.16C137.63 113.16 138.21 112.85 138.21 111.66V110.61C138.21 109.61 137.85 109.11 136.94 109.11H135.75V113.16H136.66Z" fill="#3FA6A1"/>
<path d="M144.73 118.935H143.56L141.745 110.22V118.95H140.68V108H142.385L144.185 116.745L145.92 108H147.625V118.95H146.47V110.145L144.73 118.935Z" fill="#3FA6A1"/>
<path d="M150.115 116.745L149.69 118.95H148.565L150.66 108H152.43L154.525 118.95H153.305L152.88 116.745H150.115ZM150.27 115.695H152.71L151.5 109.375L150.27 115.695Z" fill="#3FA6A1"/>
<path d="M160.31 110.645V111.645H159.155V110.595C159.155 109.595 158.765 109.015 157.87 109.015C156.975 109.015 156.59 109.61 156.59 110.595V116.385C156.59 117.385 156.995 117.96 157.87 117.96C158.745 117.96 159.155 117.37 159.155 116.385V114.96H160.31V116.32C160.31 117.98 159.53 119.075 157.84 119.075C156.15 119.075 155.385 117.98 155.385 116.32V110.645C155.385 108.985 156.165 107.89 157.84 107.89C159.515 107.89 160.31 109 160.31 110.645Z" fill="#3FA6A1"/>
<path d="M163.19 115L160.875 108H162.145L163.85 113.38L165.57 108H166.725L164.395 115V118.93H163.19V115Z" fill="#3FA6A1"/>
<path d="M282.14 119.165H229.155V198.205H282.14V119.165Z" stroke="#263238" stroke-linecap="round" stroke-linejoin="round"/>
<path d="M263.175 139.26L245.08 150.455C244.159 151.026 243.134 151.409 242.064 151.583C240.994 151.758 239.901 151.72 238.846 151.471C237.791 151.223 236.795 150.769 235.916 150.136C235.036 149.502 234.29 148.702 233.72 147.78C232.569 145.919 232.205 143.678 232.706 141.549C233.208 139.419 234.535 137.576 236.395 136.425L254.5 125.225C256.361 124.074 258.604 123.709 260.734 124.211C262.864 124.712 264.708 126.039 265.86 127.9C266.43 128.822 266.813 129.847 266.987 130.917C267.16 131.988 267.121 133.081 266.872 134.136C266.622 135.191 266.168 136.187 265.533 137.066C264.899 137.945 264.098 138.691 263.175 139.26Z" stroke="#263238" stroke-linecap="round" stroke-linejoin="round"/>
<path d="M254.501 125.225L245.271 130.94L253.956 144.97L263.186 139.26C264.107 138.69 264.907 137.944 265.54 137.064C266.174 136.185 266.627 135.189 266.876 134.134C267.124 133.079 267.162 131.986 266.988 130.916C266.814 129.847 266.431 128.822 265.861 127.9C265.29 126.979 264.544 126.178 263.665 125.545C262.785 124.912 261.789 124.458 260.735 124.21C259.68 123.962 258.586 123.923 257.517 124.098C256.447 124.272 255.422 124.655 254.501 125.225Z" stroke="#263238" stroke-linecap="round" stroke-linejoin="round"/>
<path d="M268.421 173.885L248.321 166.885C247.297 166.53 246.353 165.977 245.544 165.257C244.734 164.537 244.074 163.664 243.602 162.689C243.129 161.714 242.854 160.655 242.791 159.573C242.728 158.492 242.879 157.408 243.236 156.385C243.591 155.361 244.144 154.418 244.864 153.608C245.584 152.798 246.456 152.138 247.432 151.666C248.407 151.194 249.465 150.919 250.547 150.856C251.629 150.793 252.712 150.944 253.736 151.3L273.836 158.3C275.902 159.018 277.599 160.528 278.552 162.497C279.506 164.466 279.638 166.733 278.921 168.8C278.202 170.867 276.693 172.563 274.724 173.517C272.754 174.471 270.487 174.603 268.421 173.885Z" stroke="#263238" stroke-linecap="round" stroke-linejoin="round"/>
<path d="M273.835 158.295L263.58 154.73L258.165 170.32L268.42 173.885C270.487 174.603 272.755 174.47 274.725 173.516C276.695 172.562 278.204 170.865 278.923 168.797C279.641 166.73 279.508 164.462 278.554 162.493C277.6 160.523 275.902 159.013 273.835 158.295Z" stroke="#263238" stroke-linecap="round" stroke-linejoin="round"/>
<path d="M271.335 180.835H273.89" stroke="#263238" stroke-linecap="round" stroke-linejoin="round"/>
<path d="M236.976 180.835H268.516" stroke="#263238" stroke-linecap="round" stroke-linejoin="round"/>
<path d="M236.976 186.48H273.891" stroke="#263238" stroke-linecap="round" stroke-linejoin="round"/>
<path d="M243.285 192.13H273.89" stroke="#263238" stroke-linecap="round" stroke-linejoin="round"/>
<path d="M236.976 192.13H239.581" stroke="#263238" stroke-linecap="round" stroke-linejoin="round"/>
<path d="M259.69 173.455H262.165" stroke="#263238" stroke-linecap="round" stroke-linejoin="round"/>
<path d="M235.67 154.345V173.455H256.515" stroke="#263238" stroke-linecap="round" stroke-linejoin="round"/>
<path d="M270.63 125.87H268.245" stroke="#263238" stroke-linecap="round" stroke-linejoin="round"/>
<path d="M276.495 156.515V125.87H273.45" stroke="#263238" stroke-linecap="round" stroke-linejoin="round"/>
<path d="M249.135 125.68H235.235V134.8" stroke="#263238" stroke-linecap="round" stroke-linejoin="round"/>
<path d="M197.7 186.94C195.75 189.09 188.545 189.395 182.225 189.37C175.905 189.345 167.875 185.775 165.19 181.94C162.505 178.105 167.925 170.28 168.875 168.465C169.825 166.65 170.205 157.735 175.65 155.12C181.095 152.505 192.56 153.865 196.285 156.62C200.01 159.375 207.86 164.19 209.14 168.955C210.42 173.72 205.955 173.775 205.575 174.005C205.195 174.235 204.575 174.46 203.615 176.28C203.323 176.812 202.901 177.261 202.389 177.585C201.876 177.91 201.29 178.099 200.685 178.135L197.7 186.94Z" fill="#263238" stroke="#263238" stroke-linecap="round" stroke-linejoin="round"/>
<path d="M203.585 167.5C207.205 168.455 209.585 169.62 207.78 170.89" stroke="#545454" stroke-linecap="round" stroke-linejoin="round"/>
<path d="M189 165C189 165 196.14 165.785 201.765 167.04" stroke="#545454" stroke-linecap="round" stroke-linejoin="round"/>
<path d="M185.92 163.83C185.92 163.83 195.085 160.775 203.785 164.535" stroke="#545454" stroke-linecap="round" stroke-linejoin="round"/>
<path d="M196.575 159.635C197.028 159.75 197.472 159.895 197.905 160.07" stroke="#545454" stroke-linecap="round" stroke-linejoin="round"/>
<path d="M182.63 162.89C182.63 162.89 188.165 159.095 194.045 159.285" stroke="#545454" stroke-linecap="round" stroke-linejoin="round"/>
<path d="M168.45 181.22C167.792 181.455 167.109 181.613 166.415 181.69" stroke="#545454" stroke-linecap="round" stroke-linejoin="round"/>
<path d="M185 167.825C185 167.825 178.42 174.405 174.19 177.93C172.964 178.966 171.612 179.841 170.165 180.535" stroke="#545454" stroke-linecap="round" stroke-linejoin="round"/>
<path d="M180.75 166.415C180.75 166.415 173.935 174.17 167.825 176.5" stroke="#545454" stroke-linecap="round" stroke-linejoin="round"/>
<path d="M243.5 256.76C243.5 256.76 245.855 258.885 246.165 259.49C246.475 260.095 247.63 262.675 247.205 262.74C246.78 262.805 245.755 261.16 245.45 260.47C245.145 259.78 243.95 257.97 243.95 257.97L243.5 256.76Z" fill="white" stroke="#263238" stroke-linecap="round" stroke-linejoin="round"/>
<path d="M242.024 255.265C242.024 255.265 243.649 256.765 243.959 257.37C244.269 257.975 245.719 263.435 245.719 263.435C245.719 263.435 245.019 263.995 244.529 263.725C244.039 263.455 242.324 258.06 242.324 258.06L242.024 255.265Z" fill="white" stroke="#263238" stroke-linecap="round" stroke-linejoin="round"/>
<path d="M238.329 252.91C238.329 252.91 241.299 254.475 242.024 255.265C242.749 256.055 243.899 262.6 244.129 263.2C244.359 263.8 242.984 264.245 242.659 263.98C242.334 263.715 240.999 258 240.999 258L238.319 253.67L238.329 252.91Z" fill="white" stroke="#263238" stroke-linecap="round" stroke-linejoin="round"/>
<path d="M231.279 252.185L236.899 252.295C237.378 252.305 237.848 252.426 238.272 252.648C238.696 252.871 239.063 253.188 239.344 253.575L241.704 256.855L242.109 263.38C242.113 263.462 242.1 263.543 242.07 263.619C242.041 263.695 241.996 263.764 241.939 263.823C241.882 263.881 241.813 263.926 241.738 263.957C241.662 263.988 241.581 264.002 241.499 264C241.374 263.993 241.253 263.946 241.155 263.867C241.056 263.789 240.984 263.681 240.949 263.56L239.314 257.66L237.169 256.66C237.169 256.66 233.884 258.46 233.954 258.8C234.024 259.14 235.864 261.415 236.264 261.935C236.664 262.455 237.64 263.345 237.365 263.84C237.09 264.335 235.425 263.84 234.865 263.475C234.305 263.11 231.249 259.27 230.104 258.475C228.959 257.68 227.729 256.85 227.729 256.85L231.279 252.185Z" fill="white" stroke="#263238" stroke-linecap="round" stroke-linejoin="round"/>
<path d="M230.274 253.695L229.509 257.92L228.229 256.895L230.274 253.695Z" fill="#263238" stroke="#263238" stroke-linecap="round" stroke-linejoin="round"/>
<path d="M206 199.045C206 199.045 211.055 200.395 211.765 203.695C212.475 206.995 215.6 239.5 215.6 239.5L232.35 250.385L227.28 258.21L211.375 255.085L202.06 198L206 199.045Z" fill="white" stroke="#263238" stroke-linecap="round" stroke-linejoin="round"/>
<path d="M215.6 239.5C215.6 239.5 213.385 240.67 212.6 241.72" stroke="#263238" stroke-linecap="round" stroke-linejoin="round"/>
<path d="M208.75 206.635L213.22 266.705L156.765 264.405C156.765 264.405 158.355 202.345 159.035 201.015C159.715 199.685 165.195 199.05 169.72 197.63C174.245 196.21 182.315 193.5 182.315 193.5L192.935 193.95C195.905 194.08 208.18 199.815 208.16 200.31" fill="white"/>
<path d="M208.75 206.635L213.22 266.705L156.765 264.405C156.765 264.405 158.355 202.345 159.035 201.015C159.715 199.685 165.195 199.05 169.72 197.63C174.245 196.21 182.315 193.5 182.315 193.5L192.935 193.95C195.905 194.08 208.18 199.815 208.16 200.31" stroke="#263238" stroke-linecap="round" stroke-linejoin="round"/>
<path d="M209.265 218.49H203.66V220.66H209.265V218.49Z" fill="#263238" stroke="#263238" stroke-linecap="round" stroke-linejoin="round"/>
<path d="M176.359 195.935L176.889 218.15L183.269 219.665L179.674 225.335L188.639 250.27" fill="white"/>
<path d="M176.359 195.935L176.889 218.15L183.269 219.665L179.674 225.335L188.639 250.27" stroke="#263238" stroke-linecap="round" stroke-linejoin="round"/>
<path d="M195.385 194.65C195.385 194.65 201.3 206.93 202.985 210.97C204.67 215.01 205.36 216.28 205.36 216.28L201.14 219.2L205.455 222.61L201.42 244.25" fill="white"/>
<path d="M195.385 194.65C195.385 194.65 201.3 206.93 202.985 210.97C204.67 215.01 205.36 216.28 205.36 216.28L201.14 219.2L205.455 222.61L201.42 244.25" stroke="#263238" stroke-linecap="round" stroke-linejoin="round"/>
<path d="M178.5 195C178.5 195 187.05 217.955 187.725 225.295C188.4 232.635 190.05 266.185 190.05 266.185L201.05 266.685C201.05 266.685 200.64 233.185 198.95 220.725C197.26 208.265 194.855 197.86 194.415 196.605C194.028 195.656 193.524 194.759 192.915 193.935L186.125 192.935L178.5 195Z" fill="#3FA6A1" stroke="#263238" stroke-linecap="round" stroke-linejoin="round"/>
<path d="M199.48 232.54L195.285 241.2" stroke="#263238" stroke-linecap="round" stroke-linejoin="round"/>
<path d="M197.905 232.54L191.875 245.135" stroke="#263238" stroke-linecap="round" stroke-linejoin="round"/>
<path d="M182.049 184.775C182.049 184.775 182.084 192.59 181.924 193.45C181.764 194.31 179.259 194 179.209 195.115C179.159 196.23 182.959 206.76 186.659 210.02C190.359 213.28 191.499 212.83 192.599 210.275C193.699 207.72 194.024 202.7 194.099 201.09C194.129 200.375 194.279 198.59 194.099 197.72C193.839 196.495 193.509 194.745 192.474 194.035L192.079 193.765L192.244 189.93C192.244 189.93 185.939 189.41 182.049 184.775Z" fill="white" stroke="#263238" stroke-linecap="round" stroke-linejoin="round"/>
<path d="M192.075 193.765L192.24 189.93C192.24 189.93 185.94 189.43 182.05 184.775V184.825L182.31 186.025C182.31 186.025 184.76 193.23 192.47 194.025L192.075 193.765Z" fill="#263238" stroke="#263238" stroke-linecap="round" stroke-linejoin="round"/>
<path d="M188.08 165.82C188.08 165.82 181.08 163.66 180.775 162.655C180.47 161.65 180.805 159.185 179.915 159.655C179.025 160.125 179.145 163.09 180.345 164.01C181.545 164.93 188.185 166.21 188.64 167.22C189.095 168.23 188.44 168.945 186.205 171.825C183.97 174.705 174.245 179 174.2 180C174.155 181 175.265 184 176.995 184.21C178.089 184.306 179.185 184.05 180.125 183.48C181.341 185.792 183.136 187.749 185.335 189.16C188.835 191.295 193.885 192.13 196.95 190.035C198.625 188.885 201.58 183.29 201.805 180.945C202.03 178.6 200.78 175.945 200.805 174.945C200.83 173.945 200.9 172.72 200.9 172.72C200.9 172.72 192.185 167.88 190.99 166.835C190.158 166.185 189.135 165.828 188.08 165.82Z" fill="white" stroke="#263238" stroke-linecap="round" stroke-linejoin="round"/>
<path d="M186.58 172.7C186.58 172.7 189.08 171.1 191.58 172.355" stroke="#263238" stroke-linecap="round" stroke-linejoin="round"/>
<path d="M196.405 172.47C196.405 172.47 198 171.67 199.5 173.5" stroke="#263238" stroke-linecap="round" stroke-linejoin="round"/>
<path d="M195.04 176.785C195.04 176.785 194.845 178.51 195.32 178.905C195.795 179.3 196.78 179.585 196.255 180.31C195.73 181.035 194.11 181.085 193.405 180.185" stroke="#263238" stroke-linecap="round" stroke-linejoin="round"/>
<path d="M197.13 182.95C197.13 182.95 195.085 184.35 191.795 183.09" stroke="#263238" stroke-linecap="round" stroke-linejoin="round"/>
<path d="M189.755 176.47C189.725 177.155 189.31 177.695 188.835 177.67C188.36 177.645 187.99 177.08 188.02 176.395C188.05 175.71 188.46 175.175 188.94 175.195C189.42 175.215 189.785 175.79 189.755 176.47Z" fill="#263238"/>
<path d="M198.539 176.85C198.509 177.535 198.094 178.075 197.619 178.05C197.144 178.025 196.774 177.46 196.804 176.775C196.834 176.09 197.249 175.555 197.724 175.575C198.199 175.595 198.569 176.17 198.539 176.85Z" fill="#263238"/>
<path d="M192.121 173.69L186.076 173.428C185.354 173.397 184.742 173.957 184.711 174.68L184.61 177.013C184.579 177.736 185.139 178.347 185.862 178.378L191.906 178.64C192.629 178.671 193.24 178.111 193.272 177.388L193.373 175.055C193.404 174.332 192.844 173.721 192.121 173.69Z" stroke="#263238" stroke-linecap="round" stroke-linejoin="round"/>
<path d="M201.154 174.085L196.349 173.877C195.626 173.846 195.015 174.406 194.983 175.129L194.882 177.462C194.851 178.185 195.412 178.796 196.134 178.827L200.94 179.035C201.663 179.067 202.274 178.506 202.305 177.783L202.406 175.451C202.438 174.728 201.877 174.116 201.154 174.085Z" stroke="#263238" stroke-linecap="round" stroke-linejoin="round"/>
<path d="M193.41 174.36L194.895 174.425" stroke="#263238" stroke-linecap="round" stroke-linejoin="round"/>
<path d="M184.68 175.595L181.215 175.445" stroke="#263238" stroke-linecap="round" stroke-linejoin="round"/>
<path d="M187.545 249.245C187.545 249.245 191.18 249.085 192.47 248.51C193.76 247.935 202.85 245.51 203.315 245.665C204.867 246.305 206.371 247.055 207.815 247.91C208.55 248.45 210.13 252.755 210.73 254.46C210.803 254.649 210.801 254.858 210.722 255.045C210.644 255.232 210.496 255.38 210.31 255.46C210.136 255.541 209.938 255.555 209.754 255.501C209.57 255.447 209.412 255.327 209.31 255.165L208 253.065L208.945 256.995C208.997 257.201 208.969 257.419 208.866 257.605C208.762 257.791 208.592 257.93 208.39 257.995C208.229 258.048 208.056 258.05 207.894 258.003C207.732 257.956 207.587 257.861 207.48 257.73L204.4 253.925L202.9 252.425L206.05 258.275C206.107 258.382 206.138 258.501 206.14 258.623C206.142 258.744 206.116 258.865 206.063 258.974C206.01 259.083 205.931 259.178 205.834 259.251C205.737 259.325 205.625 259.374 205.505 259.395C205.386 259.415 205.264 259.407 205.148 259.371C205.033 259.336 204.927 259.274 204.84 259.19C203.935 258.31 201.135 255.585 200.89 255.19C200.386 254.592 199.829 254.042 199.225 253.545L202.285 259.355C202.341 259.436 202.379 259.527 202.396 259.624C202.414 259.721 202.41 259.82 202.385 259.915C202.36 260.01 202.316 260.098 202.253 260.174C202.191 260.25 202.113 260.312 202.025 260.355H201.98C200.94 260.395 200.415 259.655 199.67 258.925L196.45 255.775C196.45 255.775 191.515 256.82 190.11 256.445C188.705 256.07 185.5 253.565 185.5 253.565L187.545 249.245Z" fill="white" stroke="#263238" stroke-linecap="round" stroke-linejoin="round"/>
<path d="M187.545 249.245L187.405 254.845L185.465 253.57L187.545 249.245Z" fill="#263238" stroke="#263238" stroke-linecap="round" stroke-linejoin="round"/>
<path d="M207.98 253.065L206.875 250.83L202.975 247.98" fill="white"/>
<path d="M207.98 253.065L206.875 250.83L202.975 247.98" stroke="#263238" stroke-linecap="round" stroke-linejoin="round"/>
<path d="M202.865 252.43L201.095 250.58" stroke="#263238" stroke-linecap="round" stroke-linejoin="round"/>
<path d="M164.295 199.655C164.295 199.655 159.415 199.445 158.075 201.28C156.735 203.115 153.615 246.755 153.69 248.65C153.765 250.545 183.845 258.23 183.845 258.23L188.19 248.955L170.225 238.325L171.27 213.525" fill="white"/>
<path d="M164.295 199.655C164.295 199.655 159.415 199.445 158.075 201.28C156.735 203.115 153.615 246.755 153.69 248.65C153.765 250.545 183.845 258.23 183.845 258.23L188.19 248.955L170.225 238.325L171.27 213.525" stroke="#263238" stroke-linecap="round" stroke-linejoin="round"/>
<path d="M162.229 238.575C162.229 238.575 166.939 236.235 170.229 238.325" stroke="#263238" stroke-linecap="round" stroke-linejoin="round"/>
<path d="M164.09 240.05C165.569 239.156 167.261 238.676 168.99 238.66" stroke="#263238" stroke-linecap="round" stroke-linejoin="round"/>
<path d="M161.745 242.365C161.855 242.17 161.98 241.985 162.12 241.81" stroke="#263238" stroke-linecap="round" stroke-linejoin="round"/>
<path d="M278.8 251.24C278.8 251.24 276.565 248.4 276.565 246.675C276.565 244.95 278.29 247.49 278.29 247.49C278.29 247.49 274.64 240.795 274.945 238.055C275.25 235.315 277.985 242.825 277.985 242.825C277.985 242.825 277.075 227.41 278.595 227.915C280.115 228.42 282.045 242.915 282.045 243.84C282.045 244.765 283.36 237.45 284.375 239.58C285.39 241.71 285.375 246.78 285.375 246.78C285.375 246.78 286.695 239.07 287.71 241.71C288.725 244.35 286.5 251.34 286.5 251.34" fill="#3FA6A1"/>
<path d="M289.045 253.585H276.7V263.83H289.045V253.585Z" stroke="#263238" stroke-linecap="round" stroke-linejoin="round"/>
<path d="M289.145 257.135V251.31H276.645V258C276.645 258.398 276.803 258.779 277.084 259.061C277.365 259.342 277.747 259.5 278.145 259.5H278.225C278.622 259.5 279.004 259.342 279.285 259.061C279.566 258.779 279.725 258.398 279.725 258V257.155H279.805V258C279.805 258.398 279.963 258.779 280.244 259.061C280.525 259.342 280.907 259.5 281.305 259.5H281.385C281.782 259.5 282.164 259.342 282.445 259.061C282.726 258.779 282.885 258.398 282.885 258V257.155H282.965V258C282.965 258.398 283.123 258.779 283.404 259.061C283.685 259.342 284.067 259.5 284.465 259.5H284.54C284.937 259.5 285.319 259.342 285.6 259.061C285.881 258.779 286.04 258.398 286.04 258V257.155H286.12V258C286.12 258.398 286.278 258.779 286.559 259.061C286.84 259.342 287.222 259.5 287.62 259.5H287.695C288.092 259.5 288.474 259.342 288.755 259.061C289.036 258.779 289.195 258.398 289.195 258V257.155L289.145 257.135Z" fill="white" stroke="#263238" stroke-linecap="round" stroke-linejoin="round"/>
<path d="M139.104 256.185V251.88H129.694V256.025L139.104 256.185Z" fill="#BFBFBF" stroke="#263238" stroke-linecap="round" stroke-linejoin="round"/>
<path d="M129.694 251.88L128.739 249.645C130.605 249.475 132.485 249.583 134.319 249.965C136.022 250.29 137.647 250.94 139.104 251.88H129.694Z" fill="white" stroke="#263238" stroke-linecap="round" stroke-linejoin="round"/>
<path d="M128.74 249.645C128.74 249.645 125.55 249.805 123.795 252.04C122.703 253.533 122.041 255.297 121.88 257.14L129.695 256.025V251.88L128.74 249.645Z" fill="white" stroke="#263238" stroke-linecap="round" stroke-linejoin="round"/>
<path d="M127.145 253.315V256.5L124.75 256.66C124.685 255.779 124.857 254.897 125.25 254.105C125.411 253.762 125.695 253.491 126.045 253.345C126.395 253.199 126.787 253.188 127.145 253.315Z" fill="white" stroke="#263238" stroke-linecap="round" stroke-linejoin="round"/>
<path d="M129.375 265.595H124.435L121.245 260.01L127.465 258.42L129.375 265.595Z" fill="white" stroke="#263238" stroke-linecap="round" stroke-linejoin="round"/>
<path d="M150.905 259.535L147.715 265.595H129.375L126.665 260.33L150.905 259.535Z" fill="#A6A6A6" stroke="#263238" stroke-linecap="round" stroke-linejoin="round"/>
<path d="M126.669 260.335H151.864V255.87H126.669V260.335Z" fill="#BFBFBF" stroke="#263238" stroke-linecap="round" stroke-linejoin="round"/>
<path d="M126.665 255.865L120.765 257.94V260.65L126.665 260.33V255.865Z" fill="white" stroke="#263238" stroke-linecap="round" stroke-linejoin="round"/>
<path d="M192.06 262.685L224.355 262.195L227.665 261.655H261.345L260.24 263.925H191.23L192.06 262.685Z" fill="#263238" stroke="#263238" stroke-linecap="round" stroke-linejoin="round"/>
<path d="M268.395 254.235H226.985L232.79 212.58H274.195L268.395 254.235Z" fill="#263238" stroke="#263238" stroke-linecap="round" stroke-linejoin="round"/>
<path d="M270.246 254.235H228.836L234.641 212.58H276.051L270.246 254.235Z" fill="#3D3D3D" stroke="#263238" stroke-linecap="round" stroke-linejoin="round"/>
<path d="M257.84 241.25H244.855L247.04 225.57H260.025L257.84 241.25Z" fill="#3D3D3D" stroke="#263238" stroke-linecap="round" stroke-linejoin="round"/>
<path d="M247.041 225.57L234.641 212.58H276.051L260.026 225.57H247.041Z" fill="#595959" stroke="#263238" stroke-linecap="round" stroke-linejoin="round"/>
<path d="M244.856 241.25L229.756 254.1L270.246 254.235L257.841 241.25H244.856Z" fill="#2E2E2E" stroke="#263238" stroke-linecap="round" stroke-linejoin="round"/>
<path d="M254.095 244.105C258.386 244.105 261.865 240.626 261.865 236.335C261.865 232.044 258.386 228.565 254.095 228.565C249.804 228.565 246.325 232.044 246.325 236.335C246.325 240.626 249.804 244.105 254.095 244.105Z" fill="#263238" stroke="#263238" stroke-linecap="round" stroke-linejoin="round"/>
<path d="M254.805 232.395H255.305C256.65 232.395 257.94 232.929 258.89 233.88C259.841 234.831 260.375 236.12 260.375 237.465V264.965H249.735V237.465C249.735 236.12 250.27 234.831 251.22 233.88C252.171 232.929 253.461 232.395 254.805 232.395Z" fill="#595959" stroke="#263238" stroke-linecap="round" stroke-linejoin="round"/>
<path d="M260.376 264.96V237.715C260.235 236.529 259.628 235.449 258.69 234.71C257.752 233.972 256.559 233.636 255.373 233.777C254.188 233.919 253.107 234.525 252.369 235.463C251.63 236.401 251.295 237.594 251.436 238.78V264.96H260.376Z" fill="#595959" stroke="#263238" stroke-linecap="round" stroke-linejoin="round"/>
<path d="M256.711 251.335H256.586C255.857 251.335 255.266 251.926 255.266 252.655V257.04C255.266 257.769 255.857 258.36 256.586 258.36H256.711C257.44 258.36 258.031 257.769 258.031 257.04V252.655C258.031 251.926 257.44 251.335 256.711 251.335Z" fill="#263238" stroke="#263238" stroke-linecap="round" stroke-linejoin="round"/>
<path d="M260.586 262.405H241.006V264.96H260.586V262.405Z" fill="#595959" stroke="#263238" stroke-linecap="round" stroke-linejoin="round"/>
<path d="M294.175 263.895H59.9248V268.365H294.175V263.895Z" fill="#263238" stroke="#263238" stroke-linecap="round" stroke-linejoin="round"/>
</svg>
