<svg width="350" height="350" viewBox="0 0 350 350" fill="none" xmlns="http://www.w3.org/2000/svg">
<rect width="350" height="350" fill="white"/>
<path d="M272.046 182.575H258.806V188.17H272.046V182.575Z" fill="#EBEBEB"/>
<path d="M272.046 68.3799H258.806V73.9749H272.046V68.3799Z" fill="#EBEBEB"/>
<path d="M279.43 75.4348H266.19V81.0298H279.43V75.4348Z" fill="#EBEBEB"/>
<path d="M83.8103 68.3899H70.5703V73.9849H83.8103V68.3899Z" fill="#EBEBEB"/>
<path d="M147.295 135.325H160.535V129.73H147.295V135.325Z" fill="#EBEBEB"/>
<path d="M154.68 128.27H167.92V122.675H154.68V128.27Z" fill="#EBEBEB"/>
<path d="M208.863 103.009C211.916 96.5876 209.186 88.9065 202.764 85.8531C196.342 82.7997 188.661 85.5303 185.608 91.952C182.554 98.3738 185.285 106.055 191.707 109.108C198.128 112.162 205.809 109.431 208.863 103.009Z" fill="#EBEBEB"/>
<path d="M202.446 109.132C208.73 106.574 211.75 99.4063 209.192 93.1222C206.634 86.8381 199.466 83.8176 193.182 86.3757C186.898 88.9338 183.877 96.1018 186.436 102.386C188.994 108.67 196.162 111.691 202.446 109.132Z" fill="#DBDBDB"/>
<path d="M202.158 108.419C208.045 106.02 210.873 99.3035 208.474 93.4166C206.075 87.5298 199.358 84.7022 193.472 87.101C187.585 89.4997 184.757 96.2166 187.156 102.103C189.555 107.99 196.271 110.818 202.158 108.419Z" fill="white"/>
<path opacity="0.5" d="M209.065 95.32C203.82 98.495 195.21 103.705 190.395 106.56C189.032 105.413 187.956 103.965 187.25 102.33L203.17 87.575C204.658 88.3583 205.956 89.4574 206.974 90.7952C207.993 92.1331 208.706 93.6774 209.065 95.32Z" fill="#EBEBEB"/>
<path opacity="0.5" d="M209.316 98.1648C209.273 99.4452 209.016 100.709 208.556 101.905L194.201 108.695C193.575 108.487 192.968 108.226 192.386 107.915C196.726 105.41 204.646 100.85 209.316 98.1648Z" fill="#EBEBEB"/>
<path d="M197.925 87.0898H197.705V88.8348H197.925V87.0898Z" fill="#C7C7C7"/>
<path d="M192.574 88.4578L192.379 88.5703L193.251 90.0815L193.446 89.969L192.574 88.4578Z" fill="#C7C7C7"/>
<path d="M188.617 92.3207L188.507 92.5112L190.018 93.3837L190.128 93.1932L188.617 92.3207Z" fill="#C7C7C7"/>
<path d="M188.886 97.6499H187.141V97.8699H188.886V97.6499Z" fill="#C7C7C7"/>
<path d="M190.027 102.129L188.516 103.002L188.626 103.192L190.137 102.32L190.027 102.129Z" fill="#C7C7C7"/>
<path d="M193.256 105.445L192.384 106.957L192.579 107.069L193.45 105.558L193.256 105.445Z" fill="#C7C7C7"/>
<path d="M197.925 106.69H197.705V108.435H197.925V106.69Z" fill="#C7C7C7"/>
<path d="M202.988 105.66L202.792 105.773L203.664 107.291L203.86 107.179L202.988 105.66Z" fill="#C7C7C7"/>
<path d="M205.591 102.125L205.481 102.315L206.993 103.188L207.103 102.997L205.591 102.125Z" fill="#C7C7C7"/>
<path d="M208.49 97.6499H206.745V97.8699H208.49V97.6499Z" fill="#C7C7C7"/>
<path d="M207.002 92.3299L205.491 93.2024L205.601 93.3929L207.112 92.5204L207.002 92.3299Z" fill="#C7C7C7"/>
<path d="M203.049 88.4542L202.178 89.9658L202.373 90.0782L203.244 88.5666L203.049 88.4542Z" fill="#C7C7C7"/>
<path d="M197.98 87.875L198.361 98.54L197.271 98.525L197.686 87.875H197.98Z" fill="#C7C7C7"/>
<path d="M204.626 94.0449L197.451 98.6249L196.931 97.6649L204.481 93.7849L204.626 94.0449Z" fill="#A6A6A6"/>
<path d="M198.186 97.7599C198.186 97.809 198.177 97.8576 198.159 97.9031C198.141 97.9486 198.114 97.9899 198.079 98.0248C198.045 98.0597 198.004 98.0874 197.958 98.1063C197.913 98.1252 197.865 98.135 197.816 98.1349C197.763 98.141 197.71 98.136 197.659 98.12C197.609 98.1041 197.563 98.0777 197.523 98.0425C197.484 98.0073 197.452 97.9642 197.43 97.9159C197.409 97.8676 197.397 97.8153 197.397 97.7625C197.397 97.7096 197.409 97.6573 197.43 97.609C197.452 97.5607 197.484 97.5176 197.523 97.4824C197.563 97.4472 197.609 97.4208 197.659 97.4049C197.71 97.3889 197.763 97.3839 197.816 97.39C197.914 97.39 198.008 97.4289 198.077 97.4983C198.147 97.5677 198.186 97.6618 198.186 97.7599Z" fill="#C7C7C7"/>
<path d="M278.586 94.6099H222.886V164.11H278.586V94.6099Z" fill="#EBEBEB"/>
<path d="M276.2 97.0649H225.275V161.7H276.2V97.0649Z" fill="white"/>
<path d="M244.525 114.72C240.34 114.285 237.22 119.525 234.525 127.72C231.83 135.915 232.105 140.555 232.46 141.9C232.815 143.245 234.285 146.085 237.185 146.4C240.085 146.715 242.24 144.515 243.795 143.26C245.35 142.005 248.515 141.435 249.175 138.565C249.835 135.695 248.675 126.065 248.49 124.305C248.305 122.545 248.235 115.11 244.525 114.72Z" fill="#DBDBDB"/>
<path d="M247.846 139.31C247.086 141.025 244.101 141.18 243.181 142.22C242.261 143.26 239.636 145.405 237.601 145.525C235.566 145.645 234.051 143.335 233.536 142.14C233.156 141.265 232.991 138.34 233.781 133.945C234.114 132.088 234.551 130.252 235.091 128.445C235.541 126.919 236.07 125.417 236.676 123.945C238.621 119.23 240.861 116.395 242.426 115.865C247.646 114.115 246.971 121.865 247.526 125.155C247.711 126.25 247.891 127.985 248.026 129.875C248.096 130.94 248.156 132.06 248.191 133.145C248.281 135.935 248.211 138.5 247.846 139.31Z" fill="#EBEBEB"/>
<path d="M237.625 125.07C237.626 125.003 237.609 124.937 237.576 124.878C237.543 124.819 237.496 124.769 237.439 124.734C237.382 124.698 237.317 124.678 237.25 124.675C237.183 124.671 237.116 124.685 237.055 124.715C236.91 124.804 236.786 124.924 236.693 125.067C236.6 125.21 236.539 125.371 236.515 125.54C236.455 125.805 236.515 126.25 236.87 126.21C237.1 126.18 237.245 125.94 237.37 125.76C237.528 125.564 237.618 125.322 237.625 125.07Z" fill="#DBDBDB"/>
<path d="M238.06 122.33C237.791 122.534 237.612 122.836 237.56 123.17C237.48 123.43 237.36 123.9 237.755 123.955C238.07 123.995 238.225 123.645 238.325 123.415C238.449 123.17 238.53 122.906 238.565 122.635C238.568 122.574 238.555 122.514 238.526 122.461C238.498 122.407 238.456 122.363 238.404 122.331C238.352 122.3 238.293 122.283 238.232 122.283C238.172 122.283 238.112 122.299 238.06 122.33Z" fill="#DBDBDB"/>
<path d="M238.905 124.31C238.895 124.269 238.875 124.231 238.848 124.199C238.821 124.166 238.787 124.141 238.749 124.123C238.71 124.106 238.668 124.098 238.626 124.099C238.584 124.1 238.543 124.111 238.505 124.13C238.312 124.234 238.159 124.398 238.068 124.598C237.978 124.798 237.956 125.021 238.005 125.235C238.016 125.279 238.038 125.32 238.067 125.355C238.097 125.39 238.134 125.418 238.176 125.437C238.217 125.456 238.263 125.465 238.309 125.464C238.354 125.462 238.399 125.451 238.44 125.43C238.616 125.306 238.752 125.135 238.835 124.937C238.917 124.739 238.941 124.521 238.905 124.31Z" fill="#DBDBDB"/>
<path d="M240.216 121.375C240.226 121.312 240.218 121.248 240.193 121.19C240.167 121.132 240.126 121.083 240.072 121.048C240.019 121.014 239.957 120.996 239.894 120.996C239.83 120.996 239.769 121.015 239.716 121.05C239.524 121.189 239.376 121.379 239.288 121.598C239.199 121.817 239.174 122.057 239.216 122.29C239.238 122.352 239.285 122.403 239.344 122.432C239.404 122.461 239.473 122.466 239.536 122.445C239.726 122.334 239.888 122.179 240.006 121.993C240.124 121.806 240.196 121.595 240.216 121.375Z" fill="#DBDBDB"/>
<path d="M238.895 120.39C238.708 120.494 238.559 120.655 238.47 120.85C238.369 121.029 238.342 121.241 238.395 121.44C238.401 121.464 238.413 121.486 238.429 121.505C238.445 121.524 238.465 121.539 238.487 121.549C238.51 121.559 238.534 121.564 238.559 121.563C238.584 121.562 238.608 121.556 238.63 121.545C238.804 121.456 238.954 121.327 239.069 121.169C239.184 121.011 239.259 120.828 239.29 120.635C239.325 120.425 239.055 120.31 238.895 120.39Z" fill="#DBDBDB"/>
<path d="M240.19 118.915C240.003 119.001 239.843 119.136 239.727 119.306C239.611 119.476 239.543 119.674 239.53 119.88C239.53 119.932 239.543 119.983 239.568 120.028C239.593 120.074 239.63 120.112 239.674 120.14C239.718 120.167 239.768 120.183 239.82 120.186C239.872 120.188 239.924 120.178 239.97 120.155C240.278 119.928 240.487 119.591 240.555 119.215C240.568 119.167 240.567 119.116 240.551 119.069C240.536 119.021 240.507 118.979 240.469 118.948C240.43 118.916 240.384 118.896 240.334 118.89C240.285 118.885 240.235 118.893 240.19 118.915Z" fill="#DBDBDB"/>
<path d="M241.395 117.7C241.378 117.633 241.336 117.575 241.277 117.538C241.218 117.502 241.147 117.49 241.08 117.505C240.9 117.55 240.815 117.695 240.72 117.84C240.668 117.897 240.63 117.966 240.609 118.041C240.588 118.115 240.585 118.194 240.6 118.27C240.61 118.311 240.632 118.348 240.665 118.375C240.697 118.402 240.738 118.418 240.78 118.42C240.864 118.42 240.946 118.399 241.019 118.358C241.093 118.318 241.155 118.26 241.2 118.19C241.251 118.137 241.297 118.08 241.34 118.02C241.4 117.925 241.42 117.81 241.395 117.7Z" fill="#DBDBDB"/>
<path d="M241.206 120.18C241.197 120.145 241.182 120.112 241.161 120.083C241.14 120.054 241.113 120.029 241.083 120.011C241.052 119.992 241.018 119.98 240.982 119.974C240.947 119.969 240.91 119.971 240.876 119.98C240.782 120.011 240.697 120.064 240.629 120.134C240.56 120.205 240.509 120.291 240.481 120.385C240.401 120.555 240.356 120.885 240.601 120.94C240.846 120.995 240.951 120.835 241.056 120.675C241.086 120.62 241.126 120.565 241.156 120.51C241.21 120.409 241.227 120.292 241.206 120.18Z" fill="#DBDBDB"/>
<path d="M240.125 123.12C240.126 123.066 240.113 123.013 240.087 122.966C240.061 122.918 240.023 122.879 239.978 122.85C239.932 122.821 239.88 122.805 239.826 122.802C239.772 122.8 239.719 122.811 239.67 122.835C239.509 122.94 239.384 123.092 239.313 123.272C239.242 123.451 239.229 123.648 239.275 123.835C239.285 123.874 239.304 123.91 239.33 123.94C239.355 123.971 239.388 123.996 239.424 124.013C239.46 124.029 239.5 124.038 239.54 124.037C239.58 124.037 239.619 124.027 239.655 124.01C239.795 123.919 239.906 123.791 239.975 123.64C240.072 123.484 240.124 123.304 240.125 123.12Z" fill="#DBDBDB"/>
<path d="M237.525 126.345C237.329 126.556 237.217 126.832 237.21 127.12C237.21 127.29 237.27 127.755 237.555 127.65C237.641 127.608 237.717 127.549 237.778 127.475C237.839 127.402 237.884 127.317 237.91 127.225C238.009 127.033 238.079 126.827 238.115 126.615C238.116 126.546 238.097 126.479 238.06 126.421C238.023 126.363 237.97 126.317 237.908 126.288C237.845 126.259 237.776 126.25 237.708 126.26C237.64 126.27 237.576 126.299 237.525 126.345Z" fill="#DBDBDB"/>
<path d="M236.165 127.165C236.036 127.293 235.942 127.453 235.891 127.627C235.84 127.802 235.835 127.987 235.875 128.165C235.889 128.212 235.916 128.255 235.953 128.288C235.99 128.321 236.035 128.342 236.084 128.35C236.133 128.358 236.183 128.352 236.228 128.332C236.274 128.313 236.313 128.281 236.34 128.24C236.527 127.992 236.644 127.698 236.68 127.39C236.679 127.331 236.661 127.274 236.628 127.225C236.595 127.176 236.549 127.137 236.495 127.113C236.44 127.09 236.381 127.082 236.322 127.091C236.264 127.1 236.21 127.126 236.165 127.165Z" fill="#DBDBDB"/>
<path d="M237 129.53C236.99 129.483 236.969 129.439 236.938 129.402C236.908 129.365 236.87 129.335 236.826 129.315C236.783 129.296 236.735 129.286 236.687 129.288C236.639 129.289 236.592 129.302 236.55 129.325C236.425 129.396 236.325 129.504 236.265 129.635C236.222 129.754 236.199 129.879 236.195 130.005C236.195 130.26 236.375 130.58 236.67 130.46C236.744 130.417 236.809 130.358 236.859 130.288C236.909 130.219 236.943 130.139 236.96 130.055C237.023 129.887 237.037 129.705 237 129.53Z" fill="#DBDBDB"/>
<path d="M235.545 131.1C235.545 131.046 235.529 130.993 235.5 130.948C235.471 130.903 235.429 130.867 235.38 130.845C235.331 130.823 235.277 130.815 235.223 130.823C235.17 130.831 235.12 130.854 235.08 130.89C234.984 130.982 234.912 131.096 234.871 131.223C234.83 131.349 234.821 131.484 234.845 131.615C234.857 131.662 234.882 131.705 234.916 131.74C234.949 131.775 234.992 131.801 235.038 131.815C235.085 131.829 235.134 131.831 235.182 131.82C235.23 131.81 235.274 131.787 235.31 131.755C235.464 131.572 235.548 131.339 235.545 131.1Z" fill="#DBDBDB"/>
<path d="M235.815 132.28C235.758 132.261 235.695 132.262 235.638 132.282C235.581 132.303 235.532 132.343 235.5 132.395C235.459 132.464 235.443 132.545 235.455 132.625C235.466 132.683 235.494 132.738 235.535 132.78C235.566 132.818 235.609 132.845 235.657 132.857C235.705 132.869 235.755 132.865 235.8 132.845C235.829 132.833 235.856 132.818 235.88 132.8C235.919 132.77 235.951 132.732 235.973 132.689C235.995 132.646 236.008 132.598 236.01 132.55C236.013 132.489 235.995 132.43 235.96 132.381C235.924 132.332 235.873 132.297 235.815 132.28Z" fill="#DBDBDB"/>
<path d="M242.5 116.595C242.441 116.577 242.379 116.579 242.321 116.6C242.263 116.62 242.214 116.659 242.18 116.71C242.14 116.782 242.125 116.864 242.135 116.945C242.146 117.003 242.176 117.056 242.22 117.095C242.251 117.133 242.294 117.161 242.341 117.172C242.389 117.184 242.44 117.18 242.485 117.16L242.56 117.12C242.599 117.091 242.631 117.053 242.654 117.01C242.676 116.967 242.689 116.919 242.69 116.87C242.692 116.81 242.675 116.751 242.64 116.701C242.606 116.652 242.557 116.614 242.5 116.595Z" fill="#DBDBDB"/>
<path d="M256.945 114.72C261.13 114.285 264.25 119.525 266.945 127.72C269.64 135.915 269.365 140.555 269.01 141.9C268.655 143.245 267.185 146.085 264.285 146.4C261.385 146.715 259.23 144.515 257.675 143.26C256.12 142.005 252.95 141.435 252.295 138.565C251.64 135.695 252.795 126.065 252.98 124.305C253.165 122.545 253.235 115.11 256.945 114.72Z" fill="#DBDBDB"/>
<path d="M253.626 139.31C254.381 141.025 257.371 141.18 258.291 142.22C259.211 143.26 261.836 145.405 263.871 145.525C265.906 145.645 267.421 143.335 267.936 142.14C268.316 141.265 268.481 138.34 267.691 133.945C267.357 132.088 266.92 130.252 266.381 128.445C265.93 126.919 265.401 125.417 264.796 123.945C262.851 119.23 260.611 116.395 259.046 115.865C253.826 114.115 254.501 121.865 253.946 125.155C253.761 126.25 253.581 127.985 253.446 129.875C253.376 130.94 253.316 132.06 253.281 133.145C253.191 135.935 253.261 138.5 253.626 139.31Z" fill="#EBEBEB"/>
<path d="M254.881 126.695C254.825 126.641 254.75 126.612 254.673 126.612C254.596 126.612 254.521 126.641 254.466 126.695C254.171 126.98 253.966 128.09 254.606 128.12C255.246 128.15 255.181 127 254.881 126.695Z" fill="#DBDBDB"/>
<path d="M256 128C255.958 127.959 255.901 127.936 255.843 127.936C255.784 127.936 255.727 127.959 255.685 128C255.553 128.159 255.466 128.35 255.433 128.554C255.401 128.759 255.424 128.968 255.5 129.16C255.535 129.226 255.589 129.281 255.655 129.318C255.721 129.354 255.796 129.37 255.871 129.364C255.946 129.358 256.017 129.331 256.077 129.285C256.136 129.239 256.181 129.176 256.205 129.105C256.272 128.919 256.289 128.719 256.253 128.524C256.217 128.33 256.129 128.149 256 128Z" fill="#DBDBDB"/>
<path d="M254.501 129.275C254.071 129.445 254.051 130.23 254.241 130.57C254.279 130.638 254.336 130.693 254.404 130.73C254.473 130.767 254.55 130.783 254.628 130.777C254.706 130.772 254.78 130.744 254.842 130.697C254.905 130.651 254.953 130.588 254.981 130.515C255.066 130.22 255.041 129.045 254.501 129.275Z" fill="#DBDBDB"/>
<path d="M255.826 131.28C255.798 131.23 255.758 131.187 255.71 131.157C255.662 131.126 255.606 131.108 255.549 131.105C255.492 131.102 255.435 131.114 255.383 131.139C255.332 131.165 255.288 131.203 255.256 131.25C255.175 131.362 255.125 131.494 255.111 131.632C255.096 131.769 255.119 131.908 255.176 132.035C255.207 132.091 255.252 132.139 255.307 132.173C255.362 132.207 255.425 132.226 255.49 132.229C255.554 132.232 255.619 132.219 255.676 132.19C255.734 132.161 255.784 132.118 255.821 132.065C255.889 131.945 255.925 131.81 255.926 131.673C255.927 131.535 255.892 131.4 255.826 131.28Z" fill="#DBDBDB"/>
<path d="M254.5 132.69C254.441 132.631 254.361 132.598 254.278 132.598C254.194 132.598 254.114 132.631 254.055 132.69C254 132.746 253.957 132.812 253.929 132.885C253.901 132.958 253.889 133.037 253.893 133.115C253.898 133.193 253.918 133.27 253.954 133.339C253.99 133.409 254.039 133.471 254.1 133.52C254.158 133.559 254.227 133.578 254.297 133.573C254.367 133.569 254.433 133.541 254.485 133.495C254.584 133.385 254.64 133.243 254.643 133.095C254.646 132.947 254.595 132.803 254.5 132.69Z" fill="#DBDBDB"/>
<path d="M255 134.275C254.96 134.25 254.913 134.237 254.865 134.237C254.818 134.237 254.771 134.25 254.73 134.275C254.677 134.306 254.635 134.352 254.609 134.407C254.583 134.463 254.575 134.525 254.585 134.585C254.598 134.645 254.631 134.699 254.678 134.739C254.725 134.779 254.784 134.802 254.845 134.805C254.9 134.808 254.954 134.794 255.001 134.767C255.048 134.739 255.086 134.699 255.11 134.65C255.142 134.585 255.148 134.51 255.128 134.441C255.108 134.372 255.062 134.312 255 134.275Z" fill="#DBDBDB"/>
<path d="M256.17 124.965C256.152 124.932 256.126 124.904 256.096 124.883C256.065 124.861 256.031 124.846 255.994 124.84C255.957 124.833 255.919 124.835 255.883 124.844C255.847 124.854 255.814 124.871 255.785 124.895C255.642 125.084 255.541 125.301 255.489 125.532C255.437 125.763 255.436 126.003 255.485 126.235C255.507 126.335 255.564 126.425 255.647 126.485C255.73 126.546 255.833 126.574 255.935 126.565C256.037 126.556 256.133 126.511 256.205 126.438C256.277 126.364 256.319 126.267 256.325 126.165C256.411 125.759 256.356 125.336 256.17 124.965Z" fill="#DBDBDB"/>
<path d="M255.175 123.665C255.148 123.613 255.101 123.574 255.045 123.556C254.989 123.538 254.928 123.543 254.875 123.57C254.729 123.661 254.607 123.786 254.519 123.935C254.432 124.084 254.383 124.252 254.375 124.425C254.33 124.73 254.32 125.235 254.695 125.335C255.07 125.435 255.23 124.97 255.27 124.675C255.357 124.337 255.323 123.98 255.175 123.665Z" fill="#DBDBDB"/>
<path d="M256.5 123.09C256.504 122.891 256.437 122.698 256.31 122.545C256.257 122.486 256.184 122.451 256.105 122.446C256.027 122.442 255.949 122.468 255.89 122.52C255.747 122.659 255.66 122.846 255.645 123.045C255.608 123.235 255.608 123.43 255.645 123.62C255.665 123.705 255.712 123.781 255.779 123.837C255.845 123.893 255.929 123.926 256.016 123.931C256.103 123.936 256.189 123.913 256.262 123.865C256.335 123.817 256.39 123.747 256.42 123.665C256.484 123.48 256.511 123.285 256.5 123.09Z" fill="#DBDBDB"/>
<path d="M255.561 120.865C255.551 120.826 255.532 120.791 255.506 120.762C255.479 120.733 255.445 120.711 255.407 120.699C255.369 120.687 255.329 120.685 255.29 120.693C255.251 120.701 255.215 120.719 255.186 120.745C255.041 120.862 254.936 121.021 254.888 121.201C254.839 121.381 254.849 121.571 254.916 121.745C254.943 121.798 254.984 121.842 255.034 121.875C255.084 121.907 255.141 121.926 255.201 121.929C255.26 121.933 255.319 121.921 255.373 121.895C255.426 121.869 255.472 121.829 255.506 121.78C255.583 121.641 255.628 121.487 255.638 121.329C255.647 121.17 255.621 121.012 255.561 120.865Z" fill="#DBDBDB"/>
<path d="M257 130.25C257.005 130.203 257.005 130.156 257 130.11C256.99 130.058 256.966 130.009 256.93 129.97C256.894 129.909 256.837 129.864 256.769 129.843C256.701 129.823 256.628 129.829 256.565 129.86C256.439 129.927 256.344 130.04 256.3 130.175C256.249 130.339 256.258 130.516 256.325 130.675C256.358 130.739 256.41 130.791 256.473 130.826C256.536 130.861 256.608 130.876 256.68 130.87C256.75 130.862 256.817 130.835 256.872 130.792C256.928 130.749 256.97 130.691 256.995 130.625C257.023 130.502 257.025 130.374 257 130.25Z" fill="#DBDBDB"/>
<path d="M257.46 127.04C257.405 126.855 257.265 126.54 257.015 126.665C256.61 126.85 256.57 127.585 256.74 127.93C256.777 127.994 256.831 128.047 256.896 128.082C256.962 128.117 257.036 128.133 257.11 128.127C257.184 128.121 257.255 128.094 257.315 128.05C257.374 128.005 257.419 127.944 257.445 127.875C257.535 127.604 257.54 127.313 257.46 127.04Z" fill="#DBDBDB"/>
<path d="M257.395 124.46C257.345 124.28 257.155 124.09 256.96 124.175C256.904 124.194 256.855 124.227 256.815 124.27C256.744 124.345 256.702 124.442 256.695 124.545C256.68 124.613 256.68 124.683 256.695 124.75C256.711 124.818 256.742 124.881 256.785 124.935C256.818 124.968 256.856 124.995 256.899 125.013C256.942 125.031 256.988 125.04 257.035 125.04C257.082 125.04 257.128 125.031 257.171 125.013C257.214 124.995 257.252 124.968 257.285 124.935C257.365 124.859 257.413 124.755 257.42 124.645C257.418 124.583 257.409 124.521 257.395 124.46Z" fill="#DBDBDB"/>
<path d="M257.18 120.715C257.18 120.52 257.015 120.135 256.755 120.18C256.495 120.225 256.34 120.54 256.305 120.765C256.268 120.905 256.269 121.054 256.311 121.193C256.352 121.333 256.432 121.458 256.54 121.555C256.589 121.586 256.645 121.602 256.703 121.602C256.76 121.602 256.817 121.586 256.865 121.555C256.988 121.455 257.081 121.325 257.137 121.177C257.192 121.03 257.207 120.87 257.18 120.715Z" fill="#DBDBDB"/>
<path d="M256.3 118.5C256.265 118.463 256.219 118.439 256.168 118.43C256.118 118.421 256.067 118.428 256.02 118.45C255.873 118.539 255.754 118.668 255.678 118.822C255.602 118.976 255.571 119.149 255.59 119.32C255.587 119.42 255.62 119.518 255.682 119.597C255.744 119.676 255.832 119.73 255.93 119.75C256.029 119.77 256.131 119.752 256.218 119.702C256.304 119.651 256.369 119.57 256.4 119.475C256.452 119.314 256.469 119.145 256.452 118.977C256.435 118.809 256.383 118.647 256.3 118.5Z" fill="#DBDBDB"/>
<path d="M256.55 117.045C256.536 116.977 256.497 116.917 256.44 116.876C256.384 116.835 256.314 116.817 256.245 116.825C256.172 116.841 256.104 116.877 256.05 116.93C255.966 117.012 255.916 117.123 255.91 117.24C255.908 117.317 255.934 117.392 255.982 117.452C256.031 117.512 256.099 117.553 256.174 117.567C256.25 117.582 256.328 117.569 256.395 117.531C256.462 117.493 256.514 117.432 256.54 117.36C256.583 117.26 256.587 117.147 256.55 117.045Z" fill="#DBDBDB"/>
<path d="M255.5 129C254.957 128.927 254.441 128.717 254 128.39L253.72 128.21C253.327 127.955 252.954 127.669 252.605 127.355L252.555 127.31C252.43 127.19 252.311 127.063 252.2 126.93C251.96 126.65 251.7 126.31 251.455 125.96C251.4 125.88 251.345 125.805 251.295 125.725C251.15 125.52 251.01 125.31 250.875 125.11C250.8 125 250.725 124.89 250.66 124.78C250.46 124.421 250.22 124.086 249.945 123.78C249.791 123.935 249.649 124.102 249.52 124.28L249.235 124.635L249.05 124.86C248.95 124.98 248.845 125.105 248.74 125.22C248.616 125.368 248.484 125.51 248.345 125.645C248.198 125.799 248.029 125.932 247.845 126.04C247.789 126.072 247.725 126.087 247.66 126.085C247.105 126.025 246.455 124.825 246.485 124.29C246.505 124.171 246.555 124.059 246.63 123.965C246.734 123.815 246.845 123.672 246.965 123.535C247.115 123.365 247.29 123.175 247.465 122.99L247.69 122.75L248.01 122.42L248.185 122.23C248.418 122.007 248.61 121.747 248.755 121.46C248.761 121.407 248.761 121.353 248.755 121.3C248.755 121.225 248.755 121.12 248.725 121C248.725 120.77 248.67 120.47 248.63 120.12C248.63 120.01 248.63 119.895 248.595 119.775C248.56 119.475 248.52 119.155 248.485 118.82C248.485 118.695 248.46 118.565 248.445 118.435C248.4 118.015 248.355 117.58 248.315 117.17L248.285 116.885C248.285 116.63 248.24 116.385 248.225 116.15C248.21 115.915 248.195 115.725 248.185 115.54C248.151 115.248 248.163 114.953 248.22 114.665C248.355 114.36 249.72 114.06 250.89 113.925C251.775 113.82 252.555 113.805 252.645 113.925C252.701 114.245 252.713 114.571 252.68 114.895C252.68 115.055 252.68 115.235 252.68 115.425C252.68 115.76 252.645 116.125 252.625 116.515C252.625 116.645 252.625 116.78 252.6 116.91C252.6 117.285 252.555 117.67 252.53 118.055C252.53 118.235 252.505 118.415 252.495 118.595C252.495 118.905 252.455 119.21 252.435 119.49C252.435 119.69 252.41 119.88 252.395 120.06C252.38 120.24 252.395 120.48 252.36 120.655C252.325 120.83 252.36 120.975 252.335 121.095C252.325 121.21 252.325 121.325 252.335 121.44C252.55 121.99 252.845 122.506 253.21 122.97C253.305 123.1 253.41 123.225 253.515 123.35C253.62 123.475 253.795 123.665 253.94 123.81C254.085 123.955 254.13 124.005 254.225 124.095C254.41 124.275 254.6 124.45 254.785 124.595L255.285 125.01L255.835 125.46L256.175 125.74C256.275 125.825 256.375 125.905 256.46 125.985C256.651 126.133 256.81 126.316 256.93 126.525C257.195 127.34 255.905 128.925 255.5 129Z" fill="#A6A6A6"/>
<path d="M252.685 114.945C252.685 115.105 252.685 115.285 252.685 115.475C251.935 115.645 251.155 115.735 250.42 115.845L248.7 116.115C248.545 116.115 248.395 116.165 248.245 116.18C248.245 115.96 248.215 115.755 248.205 115.57L248.755 115.45C249.285 115.34 249.82 115.25 250.355 115.17C251.126 115.042 251.904 114.967 252.685 114.945Z" fill="#C7C7C7"/>
<path d="M252.615 116.565C252.615 116.695 252.615 116.83 252.59 116.96C252.035 117.015 251.48 117.035 250.93 117.075C250.07 117.13 249.185 117.225 248.32 117.2L248.29 116.915C249.085 116.785 249.9 116.75 250.695 116.695C251.33 116.655 251.97 116.59 252.615 116.565Z" fill="#C7C7C7"/>
<path d="M252.501 118.105C252.501 118.285 252.476 118.465 252.466 118.645C251.139 118.813 249.802 118.882 248.466 118.85C248.466 118.725 248.441 118.595 248.426 118.465C249.772 118.233 251.135 118.113 252.501 118.105Z" fill="#C7C7C7"/>
<path d="M252.426 119.54C252.426 119.74 252.401 119.93 252.386 120.11C251.138 120.209 249.885 120.222 248.636 120.15C248.636 120.04 248.636 119.925 248.601 119.805C249.867 119.623 251.146 119.534 252.426 119.54Z" fill="#C7C7C7"/>
<path d="M252.35 120.705C252.35 120.88 252.35 121.025 252.325 121.145C251.85 121.19 251.37 121.215 250.9 121.245C250.185 121.29 249.47 121.355 248.76 121.33C248.76 121.255 248.76 121.15 248.73 121.03C249.37 120.925 250.015 120.89 250.665 120.84C251.22 120.795 251.785 120.74 252.35 120.705Z" fill="#C7C7C7"/>
<path d="M248.36 125.675C248.213 125.829 248.044 125.962 247.86 126.07C247.597 125.757 247.359 125.422 247.15 125.07C246.948 124.738 246.78 124.386 246.65 124.02C246.754 123.87 246.865 123.727 246.985 123.59C247.2 123.99 247.42 124.39 247.66 124.77C247.877 125.084 248.111 125.386 248.36 125.675Z" fill="#C7C7C7"/>
<path d="M249.066 124.89C248.966 125.01 248.861 125.135 248.756 125.25C248.282 124.534 247.853 123.789 247.471 123.02L247.696 122.78C248.091 123.395 248.631 124.215 249.066 124.89Z" fill="#C7C7C7"/>
<path d="M249.536 124.31L249.251 124.665C249.066 124.37 248.896 124.055 248.726 123.77C248.471 123.34 248.226 122.895 248.016 122.45L248.191 122.26C248.471 122.705 248.756 123.145 249.041 123.585C249.196 123.825 249.371 124.065 249.536 124.31Z" fill="#C7C7C7"/>
<path d="M253.501 123.4C252.693 124.064 251.819 124.643 250.891 125.125C250.816 125.015 250.741 124.905 250.676 124.795C251.251 124.33 252.401 123.515 253.176 123.02C253.291 123.15 253.396 123.275 253.501 123.4Z" fill="#C7C7C7"/>
<path d="M254.211 124.145C253.341 124.818 252.425 125.429 251.471 125.975C251.416 125.895 251.361 125.82 251.311 125.74C252.031 125.24 253.146 124.405 253.926 123.86C254.022 123.953 254.117 124.048 254.211 124.145Z" fill="#C7C7C7"/>
<path d="M255.25 125.075C254.441 125.92 253.542 126.675 252.57 127.325C252.444 127.205 252.326 127.078 252.215 126.945C253.025 126.138 253.878 125.376 254.77 124.66L255.25 125.075Z" fill="#C7C7C7"/>
<path d="M256.425 126.05C255.748 126.954 254.935 127.748 254.015 128.405L253.735 128.225C254.165 127.8 254.61 127.395 255.04 126.965C255.47 126.535 255.775 126.19 256.14 125.805C256.24 125.89 256.34 125.97 256.425 126.05Z" fill="#C7C7C7"/>
<path d="M263.15 100.1H238.32V101.985H263.15V100.1Z" fill="#C7C7C7"/>
<path d="M257.746 103.43H243.721V105.315H257.746V103.43Z" fill="#C7C7C7"/>
<path d="M175 279.895C232.896 279.895 279.83 275.693 279.83 270.51C279.83 265.327 232.896 261.125 175 261.125C117.104 261.125 70.1699 265.327 70.1699 270.51C70.1699 275.693 117.104 279.895 175 279.895Z" fill="#EBEBEB"/>
<path d="M68.6604 239.455H165.4L165.4 84.6001H68.6604L68.6604 239.455Z" fill="#C7C7C7"/>
<path d="M73.5956 127.65L160.476 127.65V90.1551H73.5956V127.65Z" fill="#A6A6A6"/>
<path d="M73.5956 171.9H160.476V134.405H73.5956V171.9Z" fill="#A6A6A6"/>
<path d="M73.5956 216.145H160.476V178.65H73.5956V216.145Z" fill="#A6A6A6"/>
<path d="M104.695 137.205H95.7949V171.9H104.695V137.205Z" fill="white"/>
<path d="M104.695 148.655H95.7949V155.655H104.695V148.655Z" fill="#3FA6A1"/>
<path d="M104.695 158.58H95.7949V162.65H104.695V158.58Z" fill="#3FA6A1"/>
<path d="M94.5904 137.205H85.6904V171.9H94.5904V137.205Z" fill="white"/>
<path d="M94.5904 148.655H85.6904V155.655H94.5904V148.655Z" fill="#455A64"/>
<path d="M94.5904 158.58H85.6904V162.65H94.5904V158.58Z" fill="#455A64"/>
<path d="M84.485 137.205H75.585V171.9H84.485V137.205Z" fill="white"/>
<path d="M84.485 148.655H75.585V155.655H84.485V148.655Z" fill="#3FA6A1"/>
<path d="M84.485 158.58H75.585V162.65H84.485V158.58Z" fill="#3FA6A1"/>
<path d="M75.2554 127.655H83.2754V114.31H75.2554V127.655Z" fill="white"/>
<path d="M74.155 114.305H84.375V112.035H74.155V114.305Z" fill="#3FA6A1"/>
<path d="M76.29 125.475H82.25V117.245H76.29V125.475Z" fill="#455A64"/>
<path d="M75.2554 111.515H83.2754V98.1701H75.2554V111.515Z" fill="white"/>
<path d="M74.155 98.165H84.375V95.895H74.155V98.165Z" fill="#3FA6A1"/>
<path d="M76.29 109.33H82.25V101.1H76.29V109.33Z" fill="#455A64"/>
<path d="M86.1353 127.655H94.1553V114.31H86.1353V127.655Z" fill="white"/>
<path d="M85.0349 114.305H95.2549V112.035H85.0349V114.305Z" fill="#3FA6A1"/>
<path d="M87.165 125.475H93.125V117.245H87.165V125.475Z" fill="#455A64"/>
<path d="M86.1353 111.515H94.1553V98.1701H86.1353V111.515Z" fill="white"/>
<path d="M85.0349 98.165H95.2549V95.895H85.0349V98.165Z" fill="#3FA6A1"/>
<path d="M87.165 109.33H93.125V101.1H87.165V109.33Z" fill="#455A64"/>
<path d="M97.0054 127.655H105.025V114.31H97.0054V127.655Z" fill="white"/>
<path d="M95.905 114.305H106.125V112.035H95.905V114.305Z" fill="#3FA6A1"/>
<path d="M98.0351 125.475H103.995V117.245H98.0351V125.475Z" fill="#455A64"/>
<path d="M97.0054 111.515H105.025V98.1701H97.0054V111.515Z" fill="white"/>
<path d="M95.905 98.165H106.125V95.895H95.905V98.165Z" fill="#3FA6A1"/>
<path d="M98.0351 109.33H103.995V101.1H98.0351V109.33Z" fill="#455A64"/>
<path d="M107.88 127.655H115.9V114.31H107.88V127.655Z" fill="white"/>
<path d="M106.78 114.305H117V112.035H106.78V114.305Z" fill="#3FA6A1"/>
<path d="M108.91 125.475H114.87V117.245H108.91V125.475Z" fill="#455A64"/>
<path d="M107.88 111.515H115.9V98.1701H107.88V111.515Z" fill="white"/>
<path d="M106.78 98.165H117V95.895H106.78V98.165Z" fill="#3FA6A1"/>
<path d="M108.91 109.33H114.87V101.1H108.91V109.33Z" fill="#455A64"/>
<path d="M158.73 171.9H149.48V162.015C149.48 161.311 149.76 160.636 150.258 160.138C150.756 159.64 151.431 159.36 152.135 159.36H156.075C156.78 159.36 157.455 159.64 157.953 160.138C158.451 160.636 158.73 161.311 158.73 162.015V171.9Z" fill="white"/>
<path d="M151.435 159.395H156.795V158.115H151.435V159.395Z" fill="white"/>
<path d="M150.07 158.115H158.16V156.75H150.07V158.115Z" fill="#3FA6A1"/>
<path d="M150.975 169.165H158.74V162.395H150.975V169.165Z" fill="#455A64"/>
<path d="M148.695 171.9H139.445V162.015C139.445 161.311 139.725 160.636 140.223 160.138C140.721 159.64 141.396 159.36 142.1 159.36H146.04C146.744 159.36 147.42 159.64 147.918 160.138C148.416 160.636 148.695 161.311 148.695 162.015V171.9Z" fill="white"/>
<path d="M141.39 159.395H146.75V158.115H141.39V159.395Z" fill="white"/>
<path d="M140.025 158.115H148.115V156.75H140.025V158.115Z" fill="#3FA6A1"/>
<path d="M140.925 169.165H148.69V162.395H140.925V169.165Z" fill="#455A64"/>
<path d="M138.65 171.9H129.4V162.015C129.4 161.312 129.679 160.637 130.176 160.14C130.673 159.642 131.347 159.361 132.05 159.36H135.99C136.695 159.36 137.37 159.64 137.868 160.138C138.366 160.636 138.645 161.311 138.645 162.015V171.9H138.65Z" fill="white"/>
<path d="M131.345 159.395H136.705V158.115H131.345V159.395Z" fill="white"/>
<path d="M129.98 158.115H138.07V156.75H129.98V158.115Z" fill="#3FA6A1"/>
<path d="M130.885 169.165H138.65V162.395H130.885V169.165Z" fill="#455A64"/>
<path d="M128.61 171.9H119.36V162.015C119.36 161.311 119.64 160.636 120.138 160.138C120.636 159.64 121.311 159.36 122.015 159.36H125.965C126.669 159.36 127.345 159.64 127.842 160.138C128.34 160.636 128.62 161.311 128.62 162.015V171.9H128.61Z" fill="white"/>
<path d="M121.305 159.395H126.665V158.115H121.305V159.395Z" fill="white"/>
<path d="M119.94 158.115H128.03V156.75H119.94V158.115Z" fill="#3FA6A1"/>
<path d="M120.84 169.165H128.605V162.395H120.84V169.165Z" fill="#455A64"/>
<path d="M118.561 171.9H109.311V162.015C109.311 161.311 109.59 160.636 110.088 160.138C110.586 159.64 111.261 159.36 111.966 159.36H115.906C116.61 159.36 117.285 159.64 117.783 160.138C118.281 160.636 118.561 161.311 118.561 162.015V171.9Z" fill="white"/>
<path d="M111.26 159.395H116.62V158.115H111.26V159.395Z" fill="white"/>
<path d="M109.895 158.115H117.985V156.75H109.895V158.115Z" fill="#3FA6A1"/>
<path d="M110.796 169.165H118.561V162.395H110.796V169.165Z" fill="#455A64"/>
<path d="M158.73 156.23H149.48V146.345C149.48 145.641 149.76 144.966 150.258 144.468C150.756 143.97 151.431 143.69 152.135 143.69H156.075C156.78 143.69 157.455 143.97 157.953 144.468C158.451 144.966 158.73 145.641 158.73 146.345V156.23Z" fill="white"/>
<path d="M151.435 143.725H156.795V142.445H151.435V143.725Z" fill="white"/>
<path d="M150.07 142.45H158.16V141.085H150.07V142.45Z" fill="#3FA6A1"/>
<path d="M150.975 153.5H158.74V146.73H150.975V153.5Z" fill="#455A64"/>
<path d="M148.695 156.23H139.445V146.345C139.445 145.641 139.725 144.966 140.223 144.468C140.721 143.97 141.396 143.69 142.1 143.69H146.04C146.744 143.69 147.42 143.97 147.918 144.468C148.416 144.966 148.695 145.641 148.695 146.345V156.23Z" fill="white"/>
<path d="M141.39 143.725H146.75V142.445H141.39V143.725Z" fill="white"/>
<path d="M140.025 142.45H148.115V141.085H140.025V142.45Z" fill="#3FA6A1"/>
<path d="M140.925 153.5H148.69V146.73H140.925V153.5Z" fill="#455A64"/>
<path d="M138.65 156.23H129.4V146.345C129.4 145.641 129.68 144.966 130.178 144.468C130.676 143.97 131.351 143.69 132.055 143.69H135.995C136.7 143.69 137.375 143.97 137.873 144.468C138.371 144.966 138.65 145.641 138.65 146.345V156.23Z" fill="white"/>
<path d="M131.345 143.725H136.705V142.445H131.345V143.725Z" fill="white"/>
<path d="M129.98 142.45H138.07V141.085H129.98V142.45Z" fill="#3FA6A1"/>
<path d="M130.885 153.5H138.65V146.73H130.885V153.5Z" fill="#455A64"/>
<path d="M128.61 156.23H119.36V146.345C119.36 145.641 119.64 144.966 120.138 144.468C120.636 143.97 121.311 143.69 122.015 143.69H125.965C126.669 143.69 127.345 143.97 127.842 144.468C128.34 144.966 128.62 145.641 128.62 146.345V156.23H128.61Z" fill="white"/>
<path d="M121.305 143.725H126.665V142.445H121.305V143.725Z" fill="white"/>
<path d="M119.94 142.45H128.03V141.085H119.94V142.45Z" fill="#3FA6A1"/>
<path d="M120.84 153.5H128.605V146.73H120.84V153.5Z" fill="#455A64"/>
<path d="M118.561 156.23H109.311V146.345C109.311 145.641 109.59 144.966 110.088 144.468C110.586 143.97 111.261 143.69 111.966 143.69H115.906C116.61 143.69 117.285 143.97 117.783 144.468C118.281 144.966 118.561 145.641 118.561 146.345V156.23Z" fill="white"/>
<path d="M111.26 143.725H116.62V142.445H111.26V143.725Z" fill="white"/>
<path d="M109.895 142.45H117.985V141.085H109.895V142.45Z" fill="#3FA6A1"/>
<path d="M110.796 153.5H118.561V146.73H110.796V153.5Z" fill="#455A64"/>
<path d="M137.745 216.075H117.525V199.36C117.525 198.631 117.815 197.931 118.331 197.416C118.846 196.9 119.546 196.61 120.275 196.61H134.995C135.724 196.61 136.424 196.9 136.94 197.416C137.455 197.931 137.745 198.631 137.745 199.36V216.075Z" fill="white"/>
<path d="M117.525 196.61H137.745V193.235H117.525V196.61Z" fill="#263238"/>
<path d="M126.35 194.045H128.925C129.538 194.045 130.035 193.548 130.035 192.935V192.1C130.035 191.487 129.538 190.99 128.925 190.99H126.35C125.737 190.99 125.24 191.487 125.24 192.1V192.935C125.24 193.548 125.737 194.045 126.35 194.045Z" fill="#263238"/>
<path d="M118.625 211.805H136.65V202.795H118.625V211.805Z" fill="#455A64"/>
<path d="M116.575 216.075H96.3552V199.36C96.3552 198.631 96.6449 197.931 97.1606 197.416C97.6764 196.9 98.3758 196.61 99.1052 196.61H113.825C114.555 196.61 115.254 196.9 115.77 197.416C116.285 197.931 116.575 198.631 116.575 199.36V216.075Z" fill="white"/>
<path d="M96.3552 196.61H116.575V193.235H96.3552V196.61Z" fill="#263238"/>
<path d="M105.175 194.045H107.75C108.363 194.045 108.86 193.548 108.86 192.935V192.1C108.86 191.487 108.363 190.99 107.75 190.99H105.175C104.562 190.99 104.065 191.487 104.065 192.1V192.935C104.065 193.548 104.562 194.045 105.175 194.045Z" fill="#263238"/>
<path d="M97.4506 211.805H115.476V202.795H97.4506V211.805Z" fill="#455A64"/>
<path d="M158.88 216.075H138.66V199.36C138.66 198.631 138.95 197.931 139.465 197.416C139.981 196.9 140.681 196.61 141.41 196.61H156.13C156.859 196.61 157.559 196.9 158.074 197.416C158.59 197.931 158.88 198.631 158.88 199.36V216.075Z" fill="white"/>
<path d="M138.66 196.61H158.88V193.235H138.66V196.61Z" fill="#263238"/>
<path d="M147.48 194.045H150.055C150.668 194.045 151.165 193.548 151.165 192.935V192.1C151.165 191.487 150.668 190.99 150.055 190.99H147.48C146.867 190.99 146.37 191.487 146.37 192.1V192.935C146.37 193.548 146.867 194.045 147.48 194.045Z" fill="#263238"/>
<path d="M139.755 211.805H157.78V202.795H139.755V211.805Z" fill="#455A64"/>
<path d="M95.4004 216.075H75.1804V199.36C75.1804 198.631 75.4701 197.931 75.9858 197.416C76.5016 196.9 77.201 196.61 77.9304 196.61H92.6504C93.3797 196.61 94.0792 196.9 94.5949 197.416C95.1107 197.931 95.4004 198.631 95.4004 199.36V216.075Z" fill="white"/>
<path d="M75.1804 196.61H95.4004V193.235H75.1804V196.61Z" fill="#263238"/>
<path d="M84.0054 194.045H86.5804C87.1935 194.045 87.6904 193.548 87.6904 192.935V192.1C87.6904 191.487 87.1935 190.99 86.5804 190.99H84.0054C83.3924 190.99 82.8954 191.487 82.8954 192.1V192.935C82.8954 193.548 83.3924 194.045 84.0054 194.045Z" fill="#263238"/>
<path d="M76.2797 211.805H94.3047V202.795H76.2797V211.805Z" fill="#455A64"/>
<path d="M118.931 127.655H130.521V112.66H118.931V127.655Z" fill="white"/>
<path d="M118.925 112.66H130.52L128.295 109.6H121.15L118.925 112.66Z" fill="white"/>
<path d="M119.83 109.6H129.62V106.625H119.83V109.6Z" fill="#455A64"/>
<path d="M120.586 122.735H130.521V115.995H120.586V122.735Z" fill="#3FA6A1"/>
<path d="M132.165 127.655H143.755V112.66H132.165V127.655Z" fill="white"/>
<path d="M132.17 112.66H143.76L141.535 109.6H134.39L132.17 112.66Z" fill="white"/>
<path d="M133.07 109.6H142.86V106.625H133.07V109.6Z" fill="#455A64"/>
<path d="M133.825 122.735H143.76V115.995H133.825V122.735Z" fill="#3FA6A1"/>
<path d="M145.405 127.655H156.995V112.66H145.405V127.655Z" fill="white"/>
<path d="M145.41 112.66H157L154.775 109.6H147.63L145.41 112.66Z" fill="white"/>
<path d="M146.311 109.6H156.101V106.625H146.311V109.6Z" fill="#455A64"/>
<path d="M147.065 122.735H157V115.995H147.065V122.735Z" fill="#3FA6A1"/>
<path d="M67 239.455L94 239.335L121 239.29L175 239.205L229 239.29L256 239.335L283 239.455L256 239.575L229 239.62L175 239.705L121 239.62L94 239.575L67 239.455Z" fill="#263238"/>
<path d="M177.81 234.535C177.81 234.535 180.385 253.5 180.385 253.535C180.435 257.16 180.54 260.34 180.745 261.98C180.742 261.988 180.742 261.997 180.745 262.005C180.75 262.394 180.848 262.776 181.03 263.12C181.027 263.128 181.027 263.137 181.03 263.145C182.12 263.86 211.115 264.335 212.135 264.01C213.155 263.685 212.305 260.765 211.195 259.845C210.085 258.925 199.06 253.785 199.06 253.785L196.3 234.83L177.81 234.535Z" fill="#F7A9A0"/>
<path d="M180.425 255.845C180.485 258.475 180.585 260.685 180.75 261.96C180.747 261.968 180.747 261.977 180.75 261.985C180.752 262.374 180.848 262.756 181.03 263.1C181.03 263.1 181.03 263.1 181.03 263.125C182.12 263.84 211.115 264.31 212.135 263.99C213.155 263.67 212.305 260.745 211.195 259.83C210.66 259.39 207.86 257.985 205.085 256.64C205.965 257.33 206.85 258.18 206.445 258.525C205.76 259.13 188.175 258.5 180.425 255.845Z" fill="#263238"/>
<path d="M203.5 255.845C203.5 255.845 198.37 253.51 189.57 257.735Z" fill="#263238"/>
<path d="M179.58 247.605L198.13 247.2L186.03 152.385H166.9L179.58 247.605Z" fill="#F7A9A0"/>
<path d="M168.875 234.815C168.875 234.815 166.445 252.895 166.445 252.905C166.445 256.535 166.34 259.715 166.14 261.355C166.142 261.363 166.142 261.372 166.14 261.38C166.137 261.769 166.045 262.152 165.87 262.5C164.785 263.225 138.87 263.885 137.87 263.57C136.87 263.255 137.68 260.32 138.785 259.4C139.89 258.48 147.785 253.26 147.785 253.26L150.83 234.315L168.875 234.815Z" fill="#F7A9A0"/>
<path d="M137.845 263.59C138.845 263.905 164.755 263.245 165.845 262.525C165.845 262.525 165.845 262.525 165.845 262.495C166.026 262.151 166.122 261.769 166.125 261.38C166.127 261.37 166.127 261.36 166.125 261.35C166.335 259.446 166.425 257.53 166.395 255.615C162.165 258.295 151.22 259.49 147.74 258.725C144.655 258.05 145.33 255.565 145.98 254.445C143.595 256.035 139.52 258.77 138.74 259.42C137.655 260.34 136.825 263.275 137.845 263.59Z" fill="#263238"/>
<path d="M146 254.445C146 254.445 154.715 253.025 160.67 257.735Z" fill="#263238"/>
<path d="M184.29 152.365C184.215 152.715 183.015 158.275 181.79 163.05C180.885 166.55 179.955 169.605 179.425 169.92C178.788 170.31 178.119 170.645 177.425 170.92L167.195 247.34L148.77 246.93L158.535 164.58L160.845 152.365H184.29Z" fill="#F7A9A0"/>
<path d="M159.91 152.42H186.5L194.35 210.675C194.35 210.675 181.63 213.91 173.815 213.83C166 213.75 152.11 209.5 152.11 209.5L159.91 152.42Z" fill="#263238"/>
<path d="M187.24 127.145C187.235 127.198 187.212 127.247 187.175 127.285C187.137 127.322 187.088 127.345 187.035 127.35L186.18 127.27C185.73 125.03 185.15 123.215 185.27 123.905C185.449 124.991 185.473 126.097 185.34 127.19C184.965 127.155 184.095 127.055 183.66 127.01C183.535 123.17 183.09 120.265 183.02 121.13C182.735 124.63 182.385 125.685 181.995 126.83C177.93 126.38 172.61 125.72 168.77 125.16C168.625 123.025 168.56 120.73 168.47 120.875C167.78 121.955 167.395 123.625 167.195 124.925C165.975 124.735 165.005 124.56 164.415 124.425C164.415 124.425 164.38 122.64 164.415 122.065C164.514 120.59 164.869 119.143 165.465 117.79C166.12 116.464 166.907 115.207 167.815 114.04V114.015C168.377 113.238 168.848 112.399 169.22 111.515C169.48 110.866 169.685 110.197 169.835 109.515C170.375 107.015 172.03 105.015 174.36 104.695C178.885 101.83 183.49 104.695 184.16 108.195C184.38 109.74 184.495 111.695 184.66 113.245C184.711 113.844 184.796 114.44 184.915 115.03C185.625 117.845 187.84 119.75 187.24 127.145Z" fill="#263238"/>
<path d="M173.33 105.17C172.552 105.426 171.854 105.879 171.303 106.484C170.752 107.089 170.367 107.827 170.185 108.625C169.965 109.687 169.616 110.718 169.145 111.695C168.573 112.625 167.869 113.468 167.055 114.195C165.789 115.322 164.893 116.805 164.485 118.45C163.995 120.361 163.882 122.35 164.155 124.305C163.991 122.264 164.218 120.211 164.825 118.255C165.435 116.29 166.685 115.19 167.995 113.835C169.049 112.769 169.808 111.447 170.2 110C170.359 109.077 170.64 108.179 171.035 107.33C171.613 106.457 172.44 105.779 173.41 105.385C173.53 105.315 173.45 105.125 173.33 105.17Z" fill="#263238"/>
<path d="M187 118.26C186.175 116.65 185.275 115.26 184.93 113.355C184.61 111.63 184.545 109.855 184.215 108.135C184.215 108.105 184.175 108.135 184.18 108.135C184.625 111.17 184.375 114.135 185.77 116.84C186.598 118.269 187.245 119.796 187.695 121.385C188.09 123.156 188.167 124.983 187.92 126.78C187.92 126.845 187.99 126.855 188.005 126.78C188.678 123.91 188.322 120.895 187 118.26Z" fill="#263238"/>
<path d="M177.035 132C178.535 136.885 184.835 152.785 189.715 154.275C192.915 155.275 206.19 155.07 208.715 152.145C209.815 150.87 208.93 141.265 207.145 141.495C205.36 141.725 194.685 142.24 193.42 141.755C192.155 141.27 183.365 129.255 179.965 126.195C174.1 120.88 176.22 129.365 177.035 132Z" fill="#F7A9A0"/>
<path d="M203.215 140.5L202.315 154.745C202.315 154.745 191.72 155.785 187.4 153.69C182.155 151.145 176.175 133.245 175.4 130.33C174.145 125.545 174.975 122.83 177.445 123.83C178.405 124.205 179.615 125.14 181.045 126.74C182.475 128.34 191 139 193.825 141.175C195.4 142.385 203.215 140.5 203.215 140.5Z" fill="#EBEBEB"/>
<path d="M199.72 153.9C199.79 151.79 200.395 143.17 200.65 141.315C200.65 141.19 200.755 141.17 200.755 141.315C200.695 147.64 199.98 151.845 199.805 153.91C199.8 153.95 199.72 153.955 199.72 153.9Z" fill="#263238"/>
<path d="M197.845 154.965C194.42 155.035 189.875 154.865 187.4 153.665C182.155 151.12 176.175 133.22 175.4 130.305C174.145 125.52 174.975 122.805 177.445 123.805L177.675 123.905L197.845 154.965Z" fill="#263238"/>
<path d="M185.78 144.65L187.875 159.045C187.875 159.045 164.415 159.39 158.59 158.98C158.59 158.98 163.34 132.07 169.59 125.27C172.72 121.87 176.395 122.125 178.74 124.505C179.335 125.105 186.41 134.455 187.155 138.03C187.82 141.18 185.78 144.65 185.78 144.65Z" fill="#3FA6A1"/>
<path d="M172.2 123.28C172.2 123.28 176.61 133.31 176.875 141.445C177.585 163.265 174.535 199.285 173.48 201.88C172.03 205.44 150.225 208.98 150.225 208.98C150.225 208.98 156.625 155.27 162.43 138.98C167.81 123.855 172.2 123.28 172.2 123.28Z" fill="#EBEBEB"/>
<path d="M157.5 174.165C157.4 177.37 157.545 181 158.23 181.665C159.51 182.915 162.91 182.81 163.98 182.805C165.05 182.8 168.86 182.805 169.755 180.805C170.15 179.94 170.255 175.46 170.255 173.875C170.255 173.23 170.105 170.065 170.055 169.71C170.055 169.63 169.82 169.635 169.81 169.71C169.755 170.075 169.81 171.39 169.77 171.64C163.635 172.425 159.835 171.77 157.865 171.39C157.865 170.795 157.865 170.335 157.865 169.745C159.784 170.097 161.73 170.281 163.68 170.295C165.811 170.251 167.939 170.099 170.055 169.84C170.105 169.84 170.055 169.6 169.995 169.6C169.195 169.6 166.42 169.885 163.63 169.885C161.633 169.845 159.64 169.689 157.66 169.42C157.54 169.445 157.535 172.625 157.5 174.165ZM158.6 181.3C157.925 180.525 157.84 178.3 157.84 176.945C157.84 175.1 157.84 173.625 157.84 171.78C161.759 172.587 165.796 172.641 169.735 171.94C169.735 172.02 169.775 175.91 169.735 177.15C169.69 178.735 169.64 180.15 169.03 180.99C168.53 181.695 167.03 182.405 163.66 182.4C161.22 182.395 159.16 181.95 158.59 181.3H158.6Z" fill="#A6A6A6"/>
<path d="M186.58 202.21C187.785 205.07 195 207 195 207L185.91 144.385C187.063 142.502 187.513 140.272 187.18 138.09C186.57 134.59 179.215 124.39 178.025 123.865C179.254 129.121 180.106 134.458 180.575 139.835C182.615 161.845 185.26 199.1 186.58 202.21Z" fill="#EBEBEB"/>
<path d="M184.86 133.335C184.205 132.29 183.535 131.255 182.89 130.205C182.89 130.175 182.92 130.14 182.94 130.17C183.595 131.03 184.235 131.905 184.87 132.78C184.66 132.31 184.455 131.84 184.265 131.36C184.265 131.305 184.32 131.26 184.35 131.315C184.64 131.93 184.905 132.56 185.16 133.19C185.726 133.982 186.228 134.818 186.66 135.69C187.595 137.474 187.876 139.53 187.455 141.5C187.32 142.055 187.123 142.593 186.87 143.105C186.695 143.45 186.13 144.205 186.135 144.225C186.505 146.275 186.78 148.35 187.07 150.415C187.36 152.48 187.66 154.595 187.9 156.69C188.04 157.875 188.13 159.075 188.3 160.255C188.3 160.3 188.24 160.315 188.235 160.255C188.085 159.225 187.86 158.205 187.675 157.18C187.49 156.155 187.32 155.13 187.175 154.1C186.84 152.02 186.545 149.935 186.245 147.85C186.075 146.67 185.885 145.495 185.745 144.31C185.942 143.864 186.169 143.431 186.425 143.015C186.629 142.578 186.797 142.125 186.925 141.66C187.193 140.713 187.276 139.723 187.17 138.745C186.94 136.785 185.91 135 184.86 133.335Z" fill="#263238"/>
<path d="M178.08 124.095C178.563 124.742 179.055 125.382 179.555 126.015C180.055 126.645 180.555 127.285 181.055 127.915V127.765L179.82 128.9L179.72 128.995L179.83 129.085C180.33 129.53 180.875 129.96 181.4 130.395L181.355 130.285C181.165 131.46 180.96 132.635 180.79 133.815C180.62 134.995 180.44 136.175 180.29 137.355C180.54 136.185 180.775 135.018 180.995 133.855C181.23 132.68 181.43 131.505 181.64 130.33V130.265L181.585 130.22C181.085 129.78 180.545 129.335 180.02 128.905V129.09L181.23 127.935L181.305 127.865L181.24 127.785C180.74 127.16 180.185 126.55 179.655 125.935C179.125 125.32 178.63 124.7 178.08 124.095Z" fill="#DBDBDB"/>
<path d="M172.674 123.335C172.799 123.795 174.174 126.91 176.264 127.135C177.584 127.275 177.764 122.715 177.764 122.715L177.814 122.435L178.499 118.5L173.829 115.745L173.154 115.385C173.154 115.385 173.029 116.47 172.884 117.82C172.884 117.88 172.884 117.945 172.884 118.01L172.854 118.23C172.829 118.43 172.809 118.64 172.789 118.845C172.769 119.05 172.759 119.15 172.744 119.315C172.729 119.48 172.719 119.645 172.704 119.815C172.615 120.986 172.605 122.162 172.674 123.335Z" fill="#F7A9A0"/>
<path d="M172.905 117.84C173.339 118.914 174.001 119.882 174.845 120.675C175.69 121.468 176.696 122.069 177.795 122.435L178.5 118.5L173.83 115.745L173.155 115.385C173.155 115.385 173.05 116.5 172.905 117.84Z" fill="#263238"/>
<path d="M183.97 113.85C183.21 120.795 178.97 121.12 177.47 120.955C176.115 120.805 171.505 120.115 171.545 113.13C171.585 106.145 175.045 104.305 178.185 104.485C181.325 104.665 184.735 106.905 183.97 113.85Z" fill="#F7A9A0"/>
<path d="M182.7 112.17C182.547 112.12 182.397 112.061 182.25 111.995C182.083 111.956 181.934 111.863 181.825 111.73C181.799 111.682 181.789 111.626 181.798 111.571C181.807 111.517 181.835 111.467 181.875 111.43C181.966 111.368 182.072 111.331 182.182 111.323C182.292 111.315 182.402 111.336 182.5 111.385C182.711 111.457 182.888 111.603 183 111.795C183.023 111.84 183.032 111.891 183.026 111.941C183.021 111.991 183.001 112.039 182.97 112.078C182.938 112.117 182.896 112.147 182.849 112.163C182.801 112.179 182.749 112.182 182.7 112.17Z" fill="#263238"/>
<path d="M177.97 111.39C178.136 111.401 178.303 111.401 178.47 111.39C178.645 111.408 178.821 111.367 178.97 111.275C179.009 111.236 179.034 111.187 179.043 111.133C179.052 111.079 179.044 111.024 179.02 110.975C178.954 110.887 178.866 110.819 178.765 110.777C178.664 110.735 178.553 110.72 178.445 110.735C178.219 110.727 177.999 110.806 177.83 110.955C177.799 110.989 177.778 111.031 177.768 111.076C177.759 111.122 177.761 111.169 177.775 111.212C177.79 111.256 177.815 111.296 177.849 111.327C177.883 111.358 177.925 111.38 177.97 111.39Z" fill="#263238"/>
<path d="M178.665 113.295C178.665 113.295 178.625 113.295 178.62 113.33C178.57 113.83 178.43 114.33 177.98 114.43V114.46C178.5 114.46 178.69 113.75 178.665 113.295Z" fill="#263238"/>
<path d="M178.315 112.745C177.565 112.575 177.315 114.09 177.985 114.245C178.655 114.4 178.94 112.88 178.315 112.745Z" fill="#263238"/>
<path d="M178 112.77C177.85 112.83 177.695 112.955 177.53 112.945C177.365 112.935 177.235 112.745 177.14 112.57C177.09 112.704 177.093 112.851 177.149 112.983C177.205 113.114 177.309 113.219 177.44 113.275C177.715 113.365 177.94 113.145 178.09 112.87C178.095 112.83 178.06 112.745 178 112.77Z" fill="#263238"/>
<path d="M181.5 113.735C181.5 113.735 181.53 113.765 181.525 113.785C181.42 114.25 181.38 114.785 181.775 115.035C181.775 115.035 181.775 115.065 181.775 115.06C181.27 114.89 181.33 114.16 181.5 113.735Z" fill="#263238"/>
<path d="M182 113.33C182.76 113.415 182.53 114.935 181.825 114.855C181.12 114.775 181.375 113.255 182 113.33Z" fill="#263238"/>
<path d="M182.315 113.5C182.425 113.6 182.52 113.765 182.66 113.795C182.8 113.825 182.975 113.685 183.105 113.545C183.07 113.835 182.925 114.12 182.64 114.135C182.355 114.15 182.23 113.87 182.205 113.57C182.22 113.5 182.27 113.435 182.315 113.5Z" fill="#263238"/>
<path d="M180.53 115.72C180.522 116.069 180.495 116.418 180.45 116.765C180.45 116.795 180.365 116.795 180.25 116.765C179.958 116.768 179.67 116.69 179.418 116.54C179.167 116.39 178.962 116.174 178.825 115.915C178.825 115.88 178.855 115.855 178.88 115.88C179.253 116.239 179.732 116.469 180.245 116.535C180.285 116.445 180.245 115.305 180.295 115.31C180.548 115.376 180.79 115.477 181.015 115.61C181.105 114.11 180.955 112.61 181.07 111.14C181.07 111.085 181.155 111.085 181.16 111.14C181.368 112.738 181.417 114.352 181.305 115.96C181.29 116.16 180.655 115.795 180.53 115.72Z" fill="#263238"/>
<path d="M180.06 116.57C179.852 116.779 179.594 116.931 179.31 117.01C179.154 117.05 178.99 117.039 178.84 116.98C178.515 116.85 178.55 116.54 178.645 116.285C178.694 116.148 178.762 116.019 178.845 115.9C179.169 116.246 179.595 116.48 180.06 116.57Z" fill="#263238"/>
<path d="M179.31 117C179.154 117.04 178.99 117.029 178.84 116.97C178.515 116.84 178.55 116.53 178.645 116.275C178.822 116.303 178.983 116.39 179.104 116.521C179.225 116.653 179.298 116.822 179.31 117Z" fill="#FF9CBD"/>
<path d="M184.065 111.36C183.21 111.455 180.715 109.09 180.09 106.295C179.585 107.741 178.589 108.963 177.275 109.75C176.092 110.532 174.692 110.921 173.275 110.86C173.275 110.86 172.085 113.83 171.565 113.79C171.045 113.75 170 102.55 179 104.275C179 104.275 181.675 104.55 183 106.415C184.325 108.28 184.065 111.36 184.065 111.36Z" fill="#263238"/>
<path d="M177.135 115.62C176.73 115.499 176.367 115.267 176.087 114.95C175.807 114.633 175.622 114.244 175.552 113.827C175.483 113.41 175.531 112.982 175.693 112.591C175.854 112.2 176.122 111.863 176.466 111.617C176.81 111.371 177.215 111.226 177.637 111.199C178.059 111.172 178.48 111.264 178.852 111.464C179.225 111.664 179.533 111.965 179.743 112.332C179.953 112.699 180.056 113.117 180.04 113.54C180.015 114.139 179.754 114.705 179.314 115.112C178.873 115.52 178.29 115.737 177.69 115.715C177.502 115.707 177.315 115.675 177.135 115.62ZM178.335 111.575C178.173 111.525 178.004 111.499 177.835 111.495C177.337 111.48 176.853 111.656 176.48 111.986C176.107 112.315 175.873 112.775 175.826 113.27C175.78 113.766 175.923 114.261 176.228 114.654C176.533 115.048 176.977 115.311 177.468 115.389C177.96 115.468 178.463 115.357 178.875 115.078C179.288 114.799 179.579 114.374 179.689 113.888C179.799 113.403 179.721 112.894 179.469 112.464C179.218 112.034 178.812 111.716 178.335 111.575Z" fill="#37474F"/>
<path d="M182.255 116.5C181.425 116.255 180.925 115.185 181.125 114C181.209 113.435 181.468 112.91 181.865 112.5C182.024 112.316 182.228 112.177 182.457 112.095C182.685 112.013 182.931 111.992 183.171 112.033C183.41 112.074 183.635 112.177 183.823 112.33C184.011 112.484 184.157 112.684 184.245 112.91C184.48 113.423 184.55 113.996 184.445 114.55C184.23 115.78 183.315 116.65 182.4 116.49C182.352 116.498 182.304 116.502 182.255 116.5ZM183.23 112.405C183.194 112.392 183.157 112.382 183.12 112.375C182.929 112.351 182.734 112.373 182.553 112.44C182.372 112.507 182.21 112.617 182.08 112.76C181.728 113.116 181.499 113.575 181.425 114.07C181.24 115.135 181.695 116.11 182.425 116.24C183.155 116.37 183.925 115.61 184.12 114.545C184.217 114.054 184.157 113.545 183.95 113.09C183.886 112.929 183.789 112.783 183.665 112.661C183.541 112.54 183.393 112.446 183.23 112.385V112.405Z" fill="#37474F"/>
<path d="M179.92 113.785L179.77 113.525C180.155 113.3 181.005 113.055 181.445 113.73L181.195 113.895C180.795 113.29 179.955 113.765 179.92 113.785Z" fill="#37474F"/>
<path d="M169.89 112.64L169.65 112.455C169.735 112.345 170.5 111.36 171.185 111.365C171.87 111.37 175.755 112.44 175.92 112.485L175.84 112.78C174.715 112.47 171.675 111.675 171.18 111.67C170.685 111.665 170.095 112.365 169.89 112.64Z" fill="#37474F"/>
<path d="M172.725 113.115C172.725 113.115 171.655 110.68 170.58 111.02C169.505 111.36 170.01 114.68 171.08 115.335C171.21 115.428 171.357 115.493 171.512 115.527C171.668 115.562 171.829 115.564 171.985 115.535C172.142 115.505 172.291 115.445 172.423 115.356C172.555 115.268 172.668 115.153 172.755 115.02L172.725 113.115Z" fill="#F7A9A0"/>
<path d="M170.75 111.97C171.08 112.226 171.352 112.548 171.55 112.916C171.748 113.284 171.867 113.689 171.9 114.105C171.87 114.016 171.82 113.934 171.756 113.866C171.691 113.798 171.612 113.745 171.524 113.71C171.437 113.675 171.343 113.66 171.249 113.665C171.155 113.67 171.063 113.696 170.98 113.74C170.955 113.74 170.98 113.785 170.98 113.785C171.129 113.769 171.28 113.799 171.412 113.871C171.543 113.944 171.649 114.055 171.715 114.19C171.823 114.417 171.906 114.655 171.965 114.9C171.99 114.98 172.125 114.965 172.115 114.9C172.33 113.87 171.82 112.29 170.75 111.97Z" fill="#263238"/>
<path d="M176.935 133C176.935 133 175.245 130.775 176.855 129.75C178.465 128.725 179.775 131.19 179.775 131.19L176.935 133Z" fill="#455A64"/>
<path d="M190.29 147.635L190.52 150.36L190.605 151.26L189.82 150.815L187.445 149.45L176.88 132.89L179.72 131.075L190.29 147.64V147.635Z" fill="#455A64"/>
<path d="M190.525 150.36L190.605 151.26L189.815 150.815L190.525 150.36Z" fill="#37474F"/>
<path d="M179.894 130.831L176.577 132.948L176.997 133.605L180.314 131.489L179.894 130.831Z" fill="#263238"/>
<path d="M180.359 131.566L177.042 133.683L177.462 134.34L180.779 132.224L180.359 131.566Z" fill="#263238"/>
<path d="M177.465 134.335L178.535 133.65L181.77 140.02L181.36 140.25L177.465 134.335Z" fill="#263238"/>
<path d="M166.27 128C158 136.76 148.565 151.62 152.4 154.915C155.9 157.915 168.965 155.415 177.21 152.38C178.78 151.805 172.755 137.905 171.15 138.69C169.458 139.54 167.713 140.282 165.925 140.91C165.475 141.025 167.795 135.715 170.64 129.28C173.81 122.1 171 123 166.27 128Z" fill="#F7A9A0"/>
<path d="M191.045 138.08C191.045 139.68 187.08 139.285 187.08 139.285C187.649 139.677 188.063 140.255 188.25 140.92C188.52 142.105 186.78 143.055 186.78 143.055C187.285 143.584 187.62 144.253 187.74 144.975C187.885 146.135 186.24 147.34 186.24 147.34C186.436 148.082 186.357 148.87 186.02 149.56C185.045 151.365 181.885 151.335 179.93 151.7C177.739 152.161 175.589 152.798 173.5 153.605L170.2 139.15C170.2 139.15 178.76 134.31 181.12 134.47C183.105 134.61 191.085 135.635 191.045 138.08Z" fill="#F7A9A0"/>
<path d="M187.05 139.24C184.942 138.666 182.77 138.354 180.585 138.31C180.535 138.31 180.535 138.38 180.585 138.385C182.73 138.48 184.9 139.155 187.035 139.34C187.049 139.342 187.062 139.339 187.073 139.331C187.084 139.323 187.091 139.311 187.093 139.298C187.095 139.284 187.091 139.271 187.084 139.26C187.076 139.249 187.064 139.242 187.05 139.24Z" fill="#263238"/>
<path d="M186.725 142.89C186.232 142.785 185.728 142.746 185.225 142.775C184.698 142.775 184.173 142.775 183.65 142.775C182.595 142.775 181.54 142.85 180.49 142.935C180.445 142.935 180.44 143.01 180.49 143.01C181.54 142.985 182.59 142.975 183.64 143.01L185.22 143.05C185.718 143.106 186.221 143.106 186.72 143.05C186.741 143.051 186.762 143.043 186.777 143.028C186.793 143.014 186.802 142.994 186.802 142.972C186.803 142.951 186.795 142.931 186.781 142.915C186.766 142.9 186.746 142.891 186.725 142.89Z" fill="#263238"/>
<path d="M186.22 147.34C185.78 147.255 185.328 147.245 184.885 147.31L183.445 147.37C182.485 147.4 181.525 147.435 180.565 147.435C180.515 147.435 180.515 147.51 180.565 147.51C181.54 147.51 182.515 147.51 183.495 147.51H184.93C185.367 147.546 185.807 147.504 186.23 147.385C186.233 147.381 186.234 147.377 186.235 147.373C186.236 147.369 186.236 147.364 186.235 147.36C186.234 147.356 186.233 147.352 186.23 147.348C186.227 147.345 186.224 147.342 186.22 147.34Z" fill="#263238"/>
<path d="M170.335 124.155C164.41 127.55 148.795 148.155 151.335 154.04C153.875 159.925 172.835 154.145 172.835 154.145L171.685 138.34C171.685 138.34 166.685 140.955 166.515 140.7C166.345 140.445 169.46 133.345 170.725 130.455C171.99 127.565 173.5 122.345 170.335 124.155Z" fill="#EBEBEB"/>
<path d="M170.5 153.18C170.22 151.085 169.39 142.485 169.335 140.615C169.335 140.485 169.41 140.45 169.435 140.585C170.435 146.835 170.435 151.085 170.58 153.165C170.595 153.215 170.5 153.23 170.5 153.18Z" fill="#263238"/>
<path d="M171.59 138.355C171.036 138.537 170.498 138.763 169.98 139.03C169.51 139.245 169.04 139.465 168.575 139.69C167.575 140.19 166.575 140.69 165.575 141.19C164.575 141.69 163.575 142.235 162.575 142.775C161.575 143.315 160.64 143.915 159.655 144.46C159.61 144.485 159.655 144.55 159.695 144.525C160.695 144.025 161.73 143.525 162.745 143.025L165.72 141.55C166.72 141.05 167.72 140.55 168.695 140.08L170.145 139.35C170.676 139.113 171.189 138.837 171.68 138.525C171.69 138.509 171.696 138.49 171.697 138.47C171.698 138.45 171.694 138.431 171.685 138.413C171.675 138.396 171.662 138.382 171.645 138.371C171.628 138.361 171.609 138.355 171.59 138.355Z" fill="#263238"/>
<path d="M170.08 133.775C169.765 134.155 169.455 134.53 169.16 134.925C169.105 134.995 169.055 135.07 169.005 135.145L169.255 134.535C169.58 133.83 169.864 133.108 170.105 132.37C170.105 132.34 170.065 132.32 170.05 132.37C169.656 133.078 169.303 133.808 168.99 134.555C168.66 135.27 168.325 135.985 167.99 136.705C167.655 137.425 167.345 138.145 167.04 138.875C166.715 139.581 166.441 140.31 166.22 141.055C166.22 141.1 166.27 141.115 166.295 141.08C166.707 140.385 167.069 139.661 167.38 138.915C167.705 138.195 168.015 137.47 168.33 136.745L168.715 135.83L168.87 135.625C169.02 135.44 169.16 135.245 169.295 135.05C169.57 134.645 169.83 134.23 170.09 133.81C170.11 133.78 170.09 133.765 170.08 133.775Z" fill="#263238"/>
<path d="M172.9 153.8C172.9 153.695 172.84 153.675 172.815 153.8C172.79 153.925 172.815 153.975 172.78 154.035C172.135 154.185 169.78 154.825 169.21 154.975C168 155.292 166.783 155.565 165.56 155.795C164.33 156.025 163.1 156.215 161.855 156.37C160.61 156.525 159.355 156.685 158.13 156.725C158.119 156.725 158.109 156.729 158.102 156.737C158.094 156.744 158.09 156.754 158.09 156.765C158.09 156.776 158.094 156.786 158.102 156.793C158.109 156.801 158.119 156.805 158.13 156.805C159.4 156.78 160.66 156.78 161.925 156.68C163.19 156.58 164.425 156.41 165.62 156.18C166.815 155.95 168.12 155.68 169.325 155.35C169.94 155.185 170.545 155.005 171.15 154.815C171.737 154.662 172.308 154.453 172.855 154.19C172.874 154.178 172.89 154.161 172.9 154.141C172.911 154.12 172.916 154.098 172.915 154.075L172.9 153.8Z" fill="#263238"/>
<path d="M175.5 136.41L175.08 136.61L171.695 132.025L171.62 131.925L171.67 131.815L172.915 129.13L169.415 128.96H169.24L169.305 128.805C170.025 127.09 170.725 125.365 171.455 123.655C170.845 125.355 170.21 127.04 169.59 128.73L173.195 128.82H173.445L173.34 129.05L172.115 131.875L175.5 136.41Z" fill="#DBDBDB"/>
<path d="M169.385 128.715H169.55L169.49 128.875L169.385 128.715Z" fill="#DBDBDB"/>
<path d="M172.005 131.775L172.075 131.87L172.03 131.985L172.005 131.775Z" fill="#DBDBDB"/>
<path d="M172.995 128.905L173.145 129.145L172.89 129.13L172.995 128.905Z" fill="#DBDBDB"/>
<path d="M198.96 155.905L182.395 154.885L191.44 134.11L208.005 135.13L198.96 155.905Z" fill="white"/>
<path d="M200.095 155.975L183.53 154.955L192.575 134.18L209.14 135.2L200.095 155.975Z" fill="#455A64"/>
<path d="M194.335 134.29C194.195 134.652 193.921 134.946 193.57 135.11C193.405 135.185 193.375 134.975 193.54 134.905C193.758 134.799 193.934 134.623 194.04 134.405C194.04 134.365 194.075 134.325 194.09 134.29C194.14 134.161 194.157 134.022 194.14 133.885C194.128 133.827 194.098 133.775 194.055 133.735H194.025C193.985 133.725 193.944 133.725 193.905 133.735C193.831 133.753 193.764 133.791 193.71 133.845C193.61 133.944 193.523 134.055 193.45 134.175C193.448 134.188 193.448 134.202 193.45 134.215C193.45 134.215 193.45 134.215 193.45 134.245H193.215C193.278 134.102 193.36 133.969 193.46 133.85C193.538 133.745 193.638 133.659 193.753 133.596C193.868 133.533 193.994 133.495 194.125 133.485C194.218 133.49 194.305 133.53 194.37 133.596C194.435 133.663 194.472 133.752 194.475 133.845C194.464 134.002 194.416 134.155 194.335 134.29Z" fill="#3FA6A1"/>
<path d="M195.63 134.37C195.493 134.734 195.218 135.028 194.865 135.19C194.705 135.265 194.675 135.055 194.835 134.985C195.051 134.877 195.226 134.701 195.335 134.485C195.335 134.445 195.37 134.405 195.38 134.37C195.43 134.241 195.447 134.102 195.429 133.965C195.419 133.907 195.389 133.854 195.344 133.815H195.314C195.277 133.805 195.237 133.805 195.199 133.815C195.124 133.834 195.055 133.872 194.999 133.925C194.93 133.986 194.869 134.057 194.82 134.135C194.79 134.17 194.77 134.215 194.74 134.255C194.732 134.269 194.724 134.282 194.714 134.295C194.714 134.295 194.714 134.295 194.714 134.325H194.479C194.542 134.181 194.627 134.048 194.729 133.93C194.807 133.825 194.905 133.738 195.019 133.675C195.133 133.612 195.26 133.574 195.389 133.565C195.483 133.569 195.571 133.608 195.636 133.675C195.701 133.742 195.738 133.832 195.74 133.925C195.739 134.08 195.702 134.233 195.63 134.37Z" fill="#3FA6A1"/>
<path d="M196.925 134.45C196.858 134.63 196.757 134.795 196.626 134.936C196.496 135.076 196.339 135.19 196.165 135.27C196 135.345 195.97 135.135 196.13 135.065C196.346 134.957 196.522 134.782 196.63 134.565C196.63 134.525 196.665 134.485 196.675 134.45C196.727 134.322 196.745 134.182 196.725 134.045C196.715 133.987 196.685 133.934 196.64 133.895H196.605C196.567 133.885 196.528 133.885 196.49 133.895C196.415 133.915 196.346 133.952 196.29 134.005C196.223 134.068 196.165 134.138 196.115 134.215C196.085 134.253 196.059 134.293 196.035 134.335C196.034 134.348 196.034 134.362 196.035 134.375C196.035 134.375 196.035 134.375 196.035 134.405H195.8C195.864 134.262 195.949 134.129 196.05 134.01C196.127 133.906 196.226 133.819 196.34 133.756C196.454 133.693 196.58 133.655 196.71 133.645C196.803 133.649 196.891 133.688 196.957 133.755C197.022 133.822 197.059 133.912 197.06 134.005C197.052 134.162 197.006 134.315 196.925 134.45Z" fill="#3FA6A1"/>
<path d="M198.225 134.53C198.086 134.892 197.812 135.186 197.46 135.35C197.295 135.425 197.265 135.215 197.43 135.145C197.648 135.039 197.824 134.863 197.93 134.645C197.93 134.605 197.965 134.565 197.98 134.53C198.03 134.401 198.047 134.262 198.03 134.125C198.018 134.067 197.988 134.015 197.945 133.975H197.915C197.876 133.965 197.834 133.965 197.795 133.975C197.721 133.994 197.654 134.032 197.6 134.085C197.5 134.184 197.413 134.295 197.34 134.415V134.44C197.329 134.452 197.321 134.465 197.315 134.48C197.315 134.48 197.315 134.48 197.315 134.51H197.08C197.143 134.367 197.225 134.235 197.325 134.115C197.404 134.01 197.504 133.924 197.618 133.861C197.733 133.798 197.86 133.76 197.99 133.75C198.083 133.755 198.171 133.795 198.235 133.862C198.3 133.928 198.338 134.017 198.34 134.11C198.333 134.257 198.294 134.4 198.225 134.53Z" fill="#3FA6A1"/>
<path d="M199.5 134.61C199.363 134.974 199.088 135.269 198.735 135.43C198.575 135.505 198.545 135.295 198.705 135.225C198.922 135.117 199.097 134.942 199.205 134.725C199.205 134.685 199.24 134.645 199.25 134.61C199.303 134.482 199.32 134.342 199.3 134.205C199.29 134.147 199.26 134.094 199.215 134.055H199.185C199.147 134.045 199.108 134.045 199.07 134.055C198.995 134.074 198.926 134.112 198.87 134.165C198.801 134.226 198.74 134.297 198.69 134.375C198.66 134.41 198.64 134.455 198.61 134.495V134.52C198.611 134.533 198.611 134.547 198.61 134.56C198.61 134.56 198.61 134.56 198.61 134.59H198.375C198.438 134.446 198.522 134.313 198.625 134.195C198.702 134.09 198.801 134.003 198.915 133.94C199.029 133.877 199.155 133.84 199.285 133.83C199.378 133.834 199.467 133.873 199.532 133.94C199.597 134.007 199.634 134.097 199.635 134.19C199.623 134.339 199.577 134.482 199.5 134.61Z" fill="#3FA6A1"/>
<path d="M200.815 134.69C200.749 134.87 200.647 135.035 200.517 135.176C200.387 135.316 200.23 135.43 200.055 135.51C199.89 135.585 199.86 135.375 200.02 135.305C200.237 135.197 200.412 135.021 200.52 134.805C200.52 134.765 200.555 134.725 200.565 134.69C200.618 134.562 200.635 134.422 200.615 134.285C200.605 134.227 200.575 134.174 200.53 134.135H200.495C200.458 134.125 200.418 134.125 200.38 134.135C200.306 134.155 200.237 134.192 200.18 134.245C200.114 134.308 200.055 134.378 200.005 134.455C199.975 134.492 199.948 134.532 199.925 134.575V134.6C199.925 134.613 199.925 134.627 199.925 134.64C199.925 134.64 199.925 134.64 199.925 134.67H199.69C199.755 134.527 199.839 134.394 199.94 134.275C200.018 134.17 200.117 134.084 200.231 134.021C200.345 133.958 200.471 133.92 200.6 133.91C200.694 133.914 200.782 133.953 200.847 134.02C200.912 134.087 200.949 134.177 200.95 134.27C200.939 134.418 200.892 134.562 200.815 134.69Z" fill="#3FA6A1"/>
<path d="M202.115 134.77C201.976 135.132 201.702 135.426 201.35 135.59C201.185 135.665 201.155 135.455 201.32 135.385C201.538 135.279 201.714 135.103 201.82 134.885C201.82 134.845 201.855 134.805 201.87 134.77C201.92 134.641 201.937 134.502 201.92 134.365C201.908 134.307 201.879 134.255 201.835 134.215H201.805C201.766 134.203 201.724 134.203 201.685 134.215C201.611 134.234 201.544 134.272 201.49 134.325C201.421 134.386 201.36 134.457 201.31 134.535C201.279 134.572 201.253 134.612 201.23 134.655V134.68C201.228 134.693 201.228 134.707 201.23 134.72C201.23 134.72 201.23 134.72 201.23 134.75H200.995C201.058 134.607 201.14 134.475 201.24 134.355C201.319 134.25 201.419 134.164 201.533 134.101C201.648 134.038 201.775 134 201.905 133.99C201.998 133.995 202.086 134.035 202.151 134.102C202.215 134.168 202.253 134.257 202.255 134.35C202.24 134.499 202.193 134.642 202.115 134.77Z" fill="#3FA6A1"/>
<path d="M203.41 134.85C203.273 135.214 202.998 135.509 202.645 135.67C202.485 135.745 202.455 135.535 202.615 135.465C202.831 135.357 203.007 135.182 203.115 134.965C203.115 134.925 203.15 134.885 203.16 134.85C203.212 134.722 203.23 134.582 203.21 134.445C203.2 134.387 203.17 134.334 203.125 134.295H203.095C203.057 134.282 203.017 134.282 202.98 134.295C202.905 134.314 202.836 134.352 202.78 134.405C202.71 134.466 202.65 134.537 202.6 134.615C202.571 134.653 202.544 134.694 202.52 134.735V134.76C202.513 134.774 202.504 134.787 202.495 134.8C202.495 134.8 202.495 134.8 202.495 134.83H202.26C202.324 134.687 202.408 134.554 202.51 134.435C202.587 134.33 202.686 134.243 202.8 134.18C202.914 134.117 203.04 134.08 203.17 134.07C203.263 134.074 203.351 134.113 203.417 134.18C203.482 134.247 203.519 134.337 203.52 134.43C203.516 134.577 203.478 134.72 203.41 134.85Z" fill="#3FA6A1"/>
<path d="M204.705 134.93C204.638 135.11 204.537 135.275 204.407 135.416C204.276 135.556 204.119 135.67 203.945 135.75C203.78 135.825 203.75 135.615 203.91 135.545C204.127 135.437 204.302 135.261 204.41 135.045C204.41 135.005 204.445 134.965 204.455 134.93C204.508 134.802 204.525 134.662 204.505 134.525C204.495 134.467 204.465 134.414 204.42 134.375H204.385C204.348 134.363 204.307 134.363 204.27 134.375C204.195 134.395 204.127 134.432 204.07 134.485C204.004 134.548 203.945 134.618 203.895 134.695C203.864 134.732 203.838 134.772 203.815 134.815V134.855C203.815 134.855 203.815 134.855 203.815 134.885H203.58C203.645 134.742 203.729 134.609 203.83 134.49C203.908 134.386 204.007 134.299 204.12 134.236C204.234 134.173 204.36 134.135 204.49 134.125C204.583 134.129 204.672 134.168 204.737 134.235C204.802 134.302 204.839 134.392 204.84 134.485C204.832 134.642 204.786 134.795 204.705 134.93Z" fill="#3FA6A1"/>
<path d="M205.999 135C205.86 135.362 205.586 135.656 205.234 135.82C205.069 135.895 205.039 135.685 205.204 135.615C205.422 135.509 205.598 135.333 205.704 135.115C205.704 135.075 205.74 135.035 205.755 135C205.805 134.871 205.822 134.732 205.804 134.595C205.793 134.537 205.763 134.485 205.719 134.445H205.689C205.65 134.433 205.609 134.433 205.57 134.445C205.496 134.464 205.428 134.502 205.374 134.555C205.305 134.616 205.244 134.687 205.195 134.765C205.164 134.802 205.137 134.842 205.115 134.885C205.104 134.897 205.095 134.91 205.089 134.925C205.089 134.925 205.089 134.925 205.089 134.955H204.854C204.917 134.813 205 134.68 205.1 134.56C205.178 134.455 205.278 134.369 205.393 134.306C205.507 134.243 205.634 134.205 205.764 134.195C205.857 134.2 205.945 134.24 206.01 134.307C206.075 134.373 206.112 134.462 206.115 134.555C206.111 134.71 206.072 134.863 205.999 135Z" fill="#3FA6A1"/>
<path d="M207.3 135.09C207.163 135.454 206.888 135.748 206.535 135.91C206.375 135.985 206.345 135.775 206.505 135.705C206.721 135.597 206.897 135.421 207.005 135.205C207.005 135.165 207.04 135.125 207.05 135.09C207.102 134.962 207.12 134.822 207.1 134.685C207.09 134.627 207.06 134.574 207.015 134.535H206.985C206.948 134.522 206.907 134.522 206.87 134.535C206.795 134.554 206.726 134.591 206.67 134.645C206.6 134.706 206.54 134.777 206.49 134.855C206.461 134.893 206.434 134.933 206.41 134.975C206.411 134.988 206.411 135.002 206.41 135.015C206.41 135.015 206.41 135.015 206.41 135.045H206.175C206.239 134.902 206.324 134.769 206.425 134.65C206.502 134.545 206.601 134.458 206.715 134.395C206.829 134.332 206.955 134.294 207.085 134.285C207.178 134.289 207.266 134.328 207.332 134.395C207.397 134.462 207.434 134.552 207.435 134.645C207.427 134.802 207.381 134.955 207.3 135.09Z" fill="#3FA6A1"/>
<path d="M208.595 135.17C208.528 135.35 208.427 135.515 208.296 135.656C208.166 135.796 208.009 135.91 207.835 135.99C207.67 136.065 207.64 135.855 207.8 135.785C208.016 135.677 208.192 135.501 208.3 135.285C208.3 135.245 208.335 135.205 208.345 135.17C208.397 135.042 208.415 134.902 208.395 134.765C208.385 134.707 208.355 134.654 208.31 134.615H208.275C208.237 134.603 208.197 134.603 208.16 134.615C208.085 134.635 208.016 134.672 207.96 134.725C207.893 134.788 207.835 134.858 207.785 134.935C207.754 134.972 207.727 135.012 207.705 135.055V135.08C207.704 135.093 207.704 135.107 207.705 135.12C207.705 135.12 207.705 135.12 207.705 135.15H207.47C207.534 135.007 207.618 134.874 207.72 134.755C207.797 134.65 207.896 134.564 208.01 134.501C208.124 134.438 208.25 134.4 208.38 134.39C208.473 134.394 208.561 134.433 208.626 134.5C208.692 134.567 208.729 134.656 208.73 134.75C208.718 134.898 208.672 135.042 208.595 135.17Z" fill="#3FA6A1"/>
<path d="M207.68 139.95C208.305 141.84 210.18 144.325 210.18 145.81C210.197 146.182 210.09 146.549 209.877 146.855C209.663 147.16 209.355 147.387 209 147.5C209 147.5 210.37 148.405 210.145 149.75C210.025 150.445 208.82 150.865 208.82 150.865C209.119 151.088 209.351 151.388 209.49 151.734C209.63 152.08 209.671 152.457 209.61 152.825C209.39 153.77 208.215 154.05 208.215 154.05C208.215 154.05 208.89 155.27 208.36 156.16C207.28 157.96 199.035 156.945 198.135 153.75C197.715 152.25 199.715 152.62 199.715 152.62C199.715 152.62 196.96 151.41 197.125 149.705C197.29 148 199.865 148.62 199.865 148.62C199.865 148.62 197.205 147.425 197.555 145.675C197.92 143.85 200.385 144.915 200.385 144.915C200.385 144.915 198.705 143.445 199.28 142.165C200.23 140.055 203.365 143.24 205.23 143.035L206.595 140.17L207.68 139.95Z" fill="#F7A9A0"/>
<path d="M209 142.75C208.56 140.905 211 138.995 210.85 137.17C210.625 134.705 207.63 136.725 206.595 140.145L206.265 142.935L209 142.75Z" fill="#F7A9A0"/>
<path d="M208.865 150.865C208.9 150.865 208.9 150.92 208.865 150.925C205.66 151.28 202.434 150.477 199.77 148.66C199.675 148.59 199.66 148.44 199.77 148.51C201.635 149.66 206.185 150.765 208.865 150.865Z" fill="#263238"/>
<path d="M200.245 144.685C202.87 146.44 205.785 147.185 208.895 147.495C208.935 147.495 208.925 147.555 208.895 147.56C207.33 147.82 205.395 147.405 203.895 146.955C202.498 146.564 201.227 145.814 200.21 144.78C200.145 144.74 200.19 144.65 200.245 144.685Z" fill="#263238"/>
<path d="M270.835 175H79.1699V188.725H270.835V175Z" fill="#37474F"/>
<path d="M267.054 188.725H82.9395V268.385H267.054V188.725Z" fill="#37474F"/>
<path d="M267.054 188.725H82.9395V197.14H267.054V188.725Z" fill="#263238"/>
<path d="M132.025 229.775C132.027 229.68 132.065 229.589 132.132 229.522C132.199 229.455 132.29 229.416 132.385 229.415H135.355C136.151 229.415 136.914 229.731 137.477 230.294C138.039 230.856 138.355 231.619 138.355 232.415C138.355 233.211 138.039 233.974 137.477 234.536C136.914 235.099 136.151 235.415 135.355 235.415L132.76 235.445V239.57C132.75 239.66 132.707 239.743 132.639 239.803C132.571 239.864 132.484 239.897 132.393 239.897C132.302 239.897 132.215 239.864 132.147 239.803C132.079 239.743 132.036 239.66 132.025 239.57V229.775ZM135.355 234.695C135.94 234.668 136.491 234.416 136.895 233.993C137.298 233.57 137.524 233.007 137.524 232.423C137.524 231.838 137.298 231.275 136.895 230.852C136.491 230.429 135.94 230.177 135.355 230.15H132.76V234.695H135.355Z" fill="white"/>
<path d="M148.405 235.025H143V239.555C142.989 239.645 142.946 239.728 142.878 239.789C142.81 239.849 142.723 239.882 142.632 239.882C142.541 239.882 142.454 239.849 142.386 239.789C142.318 239.728 142.275 239.645 142.265 239.555V229.775C142.275 229.685 142.318 229.602 142.386 229.542C142.454 229.481 142.541 229.448 142.632 229.448C142.723 229.448 142.81 229.481 142.878 229.542C142.946 229.602 142.989 229.685 143 229.775V234.305H148.4V229.775C148.41 229.685 148.453 229.602 148.521 229.542C148.589 229.481 148.676 229.448 148.767 229.448C148.858 229.448 148.945 229.481 149.013 229.542C149.081 229.602 149.124 229.685 149.135 229.775V239.555C149.124 239.645 149.081 239.728 149.013 239.789C148.945 239.849 148.858 239.882 148.767 239.882C148.676 239.882 148.589 239.849 148.521 239.789C148.453 239.728 148.41 239.645 148.4 239.555L148.405 235.025Z" fill="white"/>
<path d="M159.175 237.2H154.39L153.46 239.7C153.434 239.77 153.387 239.831 153.325 239.874C153.263 239.917 153.19 239.94 153.115 239.94H152.98C152.886 239.901 152.812 239.827 152.772 239.733C152.733 239.64 152.732 239.534 152.77 239.44L156.415 229.705C156.448 229.637 156.499 229.581 156.563 229.541C156.627 229.501 156.7 229.48 156.775 229.48C156.851 229.476 156.926 229.495 156.991 229.536C157.055 229.576 157.106 229.635 157.135 229.705L160.78 239.44C160.801 239.486 160.812 239.535 160.814 239.585C160.815 239.635 160.806 239.684 160.788 239.731C160.77 239.778 160.743 239.82 160.708 239.856C160.673 239.892 160.631 239.92 160.585 239.94C160.525 239.94 160.495 239.94 160.45 239.94C160.376 239.938 160.303 239.914 160.242 239.871C160.181 239.829 160.133 239.769 160.105 239.7L159.175 237.2ZM154.675 236.465H158.92L156.805 230.825L154.675 236.465Z" fill="white"/>
<path d="M169.84 237.545C169.841 237.23 169.763 236.919 169.614 236.642C169.465 236.364 169.249 236.128 168.985 235.955C168.619 235.701 168.206 235.523 167.77 235.43C167.725 235.43 167.71 235.4 167.695 235.4H165.145V239.555C165.135 239.645 165.091 239.728 165.024 239.788C164.956 239.849 164.868 239.882 164.778 239.882C164.687 239.882 164.599 239.849 164.532 239.788C164.464 239.728 164.421 239.645 164.41 239.555V229.775C164.412 229.685 164.447 229.599 164.507 229.533C164.568 229.467 164.651 229.425 164.74 229.415H167.74C168.421 229.419 169.08 229.654 169.609 230.082C170.139 230.509 170.507 231.104 170.654 231.769C170.8 232.434 170.716 233.129 170.416 233.739C170.115 234.35 169.616 234.841 169 235.13C169.049 235.158 169.099 235.183 169.15 235.205C169.575 235.431 169.931 235.768 170.179 236.18C170.428 236.592 170.559 237.064 170.56 237.545C170.543 237.955 170.589 238.364 170.695 238.76C170.721 238.857 170.773 238.945 170.845 239.015C170.929 239.006 171.014 239.025 171.087 239.068C171.16 239.111 171.217 239.177 171.25 239.255C171.28 239.353 171.272 239.459 171.228 239.552C171.183 239.644 171.106 239.717 171.01 239.755C170.95 239.758 170.89 239.758 170.83 239.755H170.8C170.653 239.739 170.514 239.684 170.395 239.596C170.277 239.508 170.183 239.391 170.125 239.255C169.896 238.716 169.799 238.13 169.84 237.545ZM167.74 230.15H165.145V234.68H167.8C168.401 234.672 168.974 234.426 169.393 233.995C169.812 233.565 170.043 232.986 170.035 232.385C170.027 231.784 169.781 231.211 169.351 230.792C168.92 230.373 168.341 230.142 167.74 230.15Z" fill="white"/>
<path d="M183.595 230.915L180.235 235.58C180.203 235.631 180.159 235.673 180.107 235.702C180.054 235.731 179.995 235.745 179.935 235.745H179.905C179.843 235.749 179.78 235.736 179.724 235.707C179.669 235.678 179.622 235.634 179.59 235.58L176.23 230.93V239.555C176.22 239.645 176.176 239.728 176.109 239.788C176.041 239.849 175.953 239.882 175.863 239.882C175.772 239.882 175.684 239.849 175.617 239.788C175.549 239.728 175.506 239.645 175.495 239.555V229.835C175.495 229.779 175.508 229.723 175.534 229.674C175.56 229.624 175.599 229.581 175.645 229.55C175.645 229.55 175.645 229.55 175.675 229.52C175.755 229.471 175.85 229.452 175.942 229.469C176.035 229.486 176.118 229.536 176.175 229.61L179.91 234.785L183.63 229.61C183.687 229.535 183.77 229.484 183.863 229.467C183.955 229.451 184.051 229.469 184.13 229.52C184.169 229.556 184.204 229.596 184.235 229.64C184.268 229.7 184.289 229.766 184.295 229.835V239.555C184.294 239.65 184.255 239.741 184.188 239.808C184.121 239.875 184.03 239.914 183.935 239.915C183.888 239.916 183.841 239.907 183.797 239.889C183.753 239.871 183.713 239.845 183.679 239.811C183.646 239.777 183.619 239.737 183.601 239.693C183.583 239.649 183.574 239.602 183.575 239.555L183.595 230.915Z" fill="white"/>
<path d="M267.054 224.8H82.9395V225.3H267.054V224.8Z" fill="white"/>
<path d="M267.054 223.36H82.9395V223.86H267.054V223.36Z" fill="white"/>
<path d="M267.054 245.45H82.9395V245.95H267.054V245.45Z" fill="white"/>
<path d="M267.054 244.005H82.9395V244.505H267.054V244.005Z" fill="white"/>
<path d="M176.53 204.13H173.47V217.22H176.53V204.13Z" fill="#EBEBEB"/>
<path d="M181.545 212.205V209.145H168.455V212.205H181.545Z" fill="#EBEBEB"/>
<path d="M263.91 239.175C263.91 239.175 271.855 237.37 276.21 233.36C280.565 229.35 283 222.155 283 222.155C279.98 222.737 277.001 223.521 274.085 224.5C272.993 225.623 272.084 226.91 271.39 228.315C271.322 227.408 271.322 226.497 271.39 225.59C270.373 226.029 269.42 226.606 268.56 227.305C264.93 230.46 263.91 239.175 263.91 239.175Z" fill="#3FA6A1"/>
<path d="M278.04 225.65C279.12 224.9 280.225 224.18 281.3 223.42C281.314 223.411 281.324 223.397 281.328 223.382C281.332 223.366 281.329 223.349 281.32 223.335C281.312 223.321 281.298 223.311 281.282 223.307C281.266 223.304 281.249 223.306 281.235 223.315C279.19 224.54 277.17 225.845 275.235 227.215C274.555 227.69 273.89 228.19 273.235 228.715L273.375 228.48C273.615 228.08 273.875 227.69 274.115 227.3C274.615 226.502 275.18 225.748 275.805 225.045C275.805 225.02 275.805 224.98 275.765 225.01C275.145 225.72 274.53 226.43 273.965 227.185C273.695 227.545 273.465 227.92 273.21 228.3C273.087 228.493 272.967 228.693 272.85 228.9C272.815 228.965 272.77 229.035 272.73 229.105C271.73 229.91 270.73 230.75 269.73 231.64C269.14 232.19 268.57 232.76 268.02 233.35C268.33 232.385 268.595 231.415 268.955 230.465C268.955 230.435 268.915 230.42 268.9 230.465C268.555 231.465 268.175 232.465 267.9 233.465C267.29 234.132 266.71 234.815 266.16 235.515L266.19 235.385C266.28 235.01 266.37 234.635 266.47 234.265C266.665 233.545 266.875 232.83 267.12 232.125C267.575 230.66 268.299 229.294 269.255 228.095C269.255 228.095 269.255 228.03 269.215 228.055C267.728 229.913 266.686 232.087 266.17 234.41C266.087 234.743 266.007 235.077 265.93 235.41C265.89 235.59 265.84 235.775 265.81 235.96C265.57 236.285 265.335 236.615 265.11 236.96C263.756 239.03 262.628 241.239 261.745 243.55C260.753 246.152 259.903 248.806 259.2 251.5C259.2 251.511 259.204 251.521 259.212 251.528C259.219 251.536 259.23 251.54 259.24 251.54C259.251 251.54 259.261 251.536 259.268 251.528C259.276 251.521 259.28 251.511 259.28 251.5C260.835 246.85 262.42 242.135 265.085 238C265.645 237.123 266.249 236.275 266.895 235.46C268.212 235.375 269.512 235.116 270.76 234.69C272.125 234.232 273.427 233.604 274.635 232.82C275.327 232.355 275.995 231.854 276.635 231.32C276.638 231.318 276.64 231.315 276.642 231.312C276.643 231.309 276.644 231.305 276.644 231.302C276.644 231.298 276.644 231.295 276.643 231.291C276.642 231.288 276.64 231.285 276.638 231.282C276.635 231.28 276.633 231.278 276.629 231.276C276.626 231.275 276.623 231.274 276.619 231.273C276.616 231.273 276.612 231.274 276.609 231.275C276.606 231.276 276.603 231.278 276.6 231.28C275.491 232.175 274.267 232.916 272.96 233.485C271.677 234.071 270.337 234.522 268.96 234.83C268.375 234.955 267.78 235.05 267.185 235.13C267.909 234.213 268.682 233.335 269.5 232.5C269.77 232.23 270.045 232 270.325 231.715C271.251 231.068 272.233 230.505 273.26 230.035C274.56 229.405 275.845 228.74 277.135 228.085C277.86 227.715 278.58 227.335 279.315 226.975C279.345 226.975 279.315 226.915 279.285 226.93C277.98 227.56 276.655 228.15 275.335 228.755C274.095 229.325 272.835 229.895 271.65 230.565C271.595 230.565 271.55 230.625 271.5 230.65C272.575 229.715 273.69 228.82 274.83 227.96C275.885 227.18 276.95 226.4 278.04 225.65Z" fill="#263238"/>
<path d="M277.586 229.745C276.941 230.03 276.281 230.28 275.641 230.58C275.001 230.88 274.361 231.25 273.736 231.62C273.711 231.62 273.736 231.675 273.736 231.66C274.371 231.355 275.011 231.075 275.641 230.755C276.271 230.435 276.921 230.09 277.576 229.8C277.582 229.799 277.587 229.796 277.591 229.792C277.596 229.787 277.598 229.782 277.6 229.776C277.601 229.77 277.6 229.764 277.597 229.758C277.595 229.753 277.591 229.748 277.586 229.745Z" fill="#263238"/>
<path d="M238.096 199.125C239.563 201.02 240.395 203.33 240.471 205.725C240.496 206.44 240.381 207.43 240.301 208.6C242.289 209.748 244.051 211.249 245.501 213.03C243.914 212.11 242.092 211.674 240.261 211.775C240.3 212.573 240.402 213.367 240.566 214.15C241.722 214.155 242.866 214.382 243.936 214.82C242.892 214.808 241.857 215.012 240.896 215.42C242.311 219.92 246.521 224.56 258.151 226.525C259.382 220.998 258.654 215.214 256.091 210.165C252.591 203.31 238.096 199.125 238.096 199.125Z" fill="#3FA6A1"/>
<path d="M262.161 245.81C261.957 243.883 261.706 241.963 261.406 240.05C260.817 236.22 260.034 232.421 259.061 228.67C258.606 226.914 258.045 225.188 257.381 223.5C257.416 223.19 257.431 222.877 257.426 222.565C257.426 222.195 257.426 221.82 257.426 221.45C257.426 220.705 257.386 219.95 257.321 219.22C257.203 217.75 256.964 216.291 256.606 214.86C256.391 214.03 256.146 213.215 255.901 212.395C255.901 212.365 255.841 212.395 255.851 212.395C256.237 213.825 256.524 215.28 256.711 216.75C256.918 218.195 257.048 219.651 257.101 221.11C257.101 221.51 257.101 221.91 257.101 222.31C257.101 222.48 257.101 222.65 257.101 222.81C256.528 221.421 255.874 220.067 255.141 218.755C253.953 216.676 252.616 214.686 251.141 212.8C251.136 212.58 251.104 212.362 251.046 212.15C250.991 211.89 250.936 211.65 250.876 211.37C250.756 210.84 250.621 210.315 250.481 209.785C250.191 208.735 249.811 207.715 249.481 206.675C249.478 206.67 249.474 206.665 249.47 206.662C249.465 206.659 249.459 206.657 249.453 206.657C249.447 206.657 249.442 206.659 249.437 206.662C249.432 206.665 249.428 206.67 249.426 206.675C249.736 207.705 249.926 208.775 250.176 209.82C250.291 210.32 250.406 210.86 250.516 211.38C250.576 211.635 250.631 211.88 250.686 212.155C250.683 212.175 250.683 212.195 250.686 212.215C250.216 211.622 249.736 211.037 249.246 210.46C247.026 207.86 244.591 205.46 242.141 203.07C241.841 202.78 241.531 202.49 241.226 202.205C241.201 202.18 241.166 202.205 241.186 202.245C243.531 204.685 245.836 207.155 248.016 209.745C248.516 210.355 249.046 210.98 249.551 211.61L248.756 211.11C248.081 210.665 247.396 210.235 246.691 209.84C245.986 209.445 245.271 209.06 244.546 208.7C243.821 208.34 243.006 208.03 242.286 207.61C242.256 207.61 242.226 207.645 242.261 207.66C242.996 207.997 243.705 208.39 244.381 208.835C245.091 209.248 245.794 209.675 246.491 210.115C247.176 210.55 247.861 210.975 248.541 211.42C249.106 211.785 249.661 212.185 250.251 212.525C251.607 214.259 252.859 216.073 254.001 217.955C254.703 219.139 255.346 220.357 255.926 221.605L255.506 221.425L254.441 220.925C253.761 220.62 253.071 220.325 252.386 220.03C251.081 219.46 249.756 218.94 248.476 218.315C247.755 217.977 247.059 217.592 246.391 217.16C246.361 217.16 246.336 217.185 246.366 217.205C248.751 218.85 251.421 220.005 254.061 221.175L255.206 221.675C255.516 221.815 255.831 221.97 256.156 222.09C256.945 223.844 257.608 225.652 258.141 227.5C259.183 231.202 260.028 234.958 260.671 238.75C261.341 242.545 261.791 246.37 262.141 250.21C262.181 250.71 262.226 251.165 262.281 251.645C262.287 251.681 262.306 251.713 262.334 251.736C262.362 251.76 262.397 251.772 262.433 251.772C262.469 251.772 262.505 251.76 262.532 251.736C262.56 251.713 262.579 251.681 262.586 251.645C262.561 249.7 262.361 247.745 262.161 245.81Z" fill="#263238"/>
<path d="M255.086 213.7C254.871 212.515 254.556 211.36 254.241 210.2C254.241 210.165 254.181 210.2 254.186 210.2C254.481 211.335 254.686 212.495 254.906 213.645C255.126 214.795 255.316 216 255.481 217.185C255.481 217.185 255.516 217.185 255.511 217.185C255.436 216.016 255.294 214.853 255.086 213.7Z" fill="#263238"/>
<path d="M250.075 216.905C249.265 216.373 248.42 215.897 247.545 215.48C247.12 215.26 246.69 215.055 246.265 214.845C245.84 214.635 245.36 214.455 244.92 214.235C244.89 214.235 244.865 214.265 244.92 214.28C245.345 214.495 245.75 214.75 246.165 214.98C246.58 215.21 247.025 215.48 247.455 215.685C248.31 216.14 249.145 216.65 250.035 217.02C250.048 217.02 250.061 217.015 250.072 217.008C250.083 217 250.091 216.989 250.095 216.976C250.099 216.964 250.1 216.95 250.096 216.938C250.093 216.925 250.085 216.914 250.075 216.905Z" fill="#263238"/>
<path opacity="0.1" d="M264.056 225.41C264.056 225.41 271.406 223.65 274.786 218.72C278.006 214.005 279.051 205.975 279.131 205.27C279.001 205.92 277.481 212.935 272.476 216.205C268.646 218.71 264.941 220.77 264.056 225.41Z" fill="#263238"/>
<path d="M270.841 212.705C269.532 213.906 268.592 215.455 268.131 217.17C268.672 215.497 269.606 213.978 270.856 212.74C270.901 212.72 270.866 212.68 270.841 212.705Z" fill="#263238"/>
<path d="M264.055 225.41C264.055 225.41 271.405 223.65 274.785 218.72C278.005 214.005 279.05 205.975 279.13 205.27C279.133 205.253 279.133 205.237 279.13 205.22C279.13 205.22 275.63 210.22 271.895 211.515C268.16 212.81 263 217.215 264.055 225.41Z" fill="#3FA6A1"/>
<path d="M277.836 208C277.178 209.352 276.419 210.652 275.566 211.89C274.707 213.062 273.689 214.109 272.541 215C271.541 215.795 270.486 216.5 269.476 217.29V217.255C269.666 216.97 269.871 216.7 270.081 216.43C270.501 215.895 270.961 215.385 271.421 214.885C272.336 213.885 273.271 212.92 274.091 211.845C274.544 211.252 274.938 210.616 275.266 209.945C275.266 209.915 275.231 209.9 275.216 209.945C274.026 212.445 271.641 214.02 269.941 216.12C269.698 216.418 269.471 216.729 269.261 217.05C269.094 217.282 268.953 217.532 268.841 217.795C267.914 218.542 267.075 219.393 266.341 220.33C266.403 219.848 266.502 219.372 266.636 218.905C266.807 218.25 267.069 217.622 267.416 217.04C267.416 217.01 267.386 216.98 267.371 217.01C267.013 217.591 266.724 218.212 266.511 218.86C266.358 219.377 266.269 219.911 266.246 220.45C265.879 220.943 265.545 221.459 265.246 221.995C265.276 221.84 265.306 221.68 265.341 221.525C265.486 220.79 265.646 220.06 265.841 219.34C266.185 217.866 266.784 216.463 267.611 215.195C267.615 215.189 267.616 215.182 267.615 215.175C267.613 215.168 267.609 215.161 267.603 215.157C267.597 215.153 267.59 215.152 267.583 215.153C267.576 215.155 267.57 215.159 267.566 215.165C266.722 216.416 266.062 217.782 265.606 219.22C265.371 219.94 265.181 220.675 265.016 221.415C264.936 221.775 264.866 222.14 264.796 222.505C264.761 222.69 264.721 222.885 264.691 223.075C263.959 224.681 263.39 226.356 262.991 228.075C262.27 231.138 261.747 234.245 261.426 237.375C261.049 240.651 260.882 243.948 260.926 247.245C260.926 247.66 260.956 248.075 260.981 248.485C260.981 248.595 261.146 248.61 261.151 248.485C261.226 246.855 261.266 245.22 261.361 243.59C261.456 241.96 261.601 240.33 261.776 238.705C262.113 235.513 262.623 232.341 263.306 229.205C263.906 226.515 264.676 223.81 266.146 221.455C266.877 220.283 267.771 219.221 268.801 218.3C269.831 217.375 270.956 216.565 272.046 215.705C273.145 214.871 274.144 213.911 275.021 212.845C275.918 211.656 276.702 210.386 277.361 209.05L277.891 208.05C277.901 208 277.856 207.955 277.836 208Z" fill="#263238"/>
<path d="M276.571 209.065C276.087 210.055 275.539 211.012 274.931 211.93C274.931 211.93 274.931 211.97 274.966 211.93C275.596 211.021 276.15 210.061 276.621 209.06C276.636 209.05 276.586 209.035 276.571 209.065Z" fill="#263238"/>
<path d="M237.07 222.155C237.07 222.155 236.95 232.605 243.2 235.62C249.45 238.635 252.8 236.12 257.045 237.12C256.88 236.87 253.85 232.515 249.045 231.315C244.065 230.09 238.57 226.5 237.07 222.155Z" fill="#3FA6A1"/>
<path opacity="0.1" d="M237.07 222.155C237.07 222.155 236.95 232.605 243.2 235.62C249.45 238.635 252.8 236.12 257.045 237.12C254.802 236.053 252.404 235.346 249.94 235.025C246 234.56 238.465 232 237.07 222.155Z" fill="black"/>
<path d="M257.455 237.325C256.707 236.646 255.865 236.078 254.955 235.64C254.82 235.575 254.685 235.525 254.545 235.465C254.405 235.405 254.41 235.305 254.335 235.225C254.15 235.03 253.955 234.845 253.75 234.665C253.357 234.328 252.935 234.025 252.49 233.76C251.455 233.15 250.325 232.725 249.265 232.16C249.259 232.159 249.253 232.161 249.248 232.164C249.243 232.167 249.238 232.171 249.236 232.176C249.233 232.182 249.232 232.188 249.233 232.194C249.233 232.2 249.236 232.205 249.24 232.21C249.74 232.48 250.27 232.78 250.775 233.075C251.28 233.37 251.775 233.64 252.275 233.95C252.71 234.228 253.122 234.539 253.51 234.88C253.62 234.975 253.725 235.08 253.835 235.185C253.143 234.953 252.436 234.766 251.72 234.625C250.575 234.395 249.42 234.23 248.28 233.985C247.719 233.867 247.165 233.718 246.62 233.54C246.12 233.12 245.585 232.705 245.095 232.255C244.499 231.713 243.958 231.114 243.48 230.465C243.48 230.435 243.41 230.465 243.435 230.49C244.192 231.517 245.049 232.465 245.995 233.32C245.725 233.215 245.46 233.105 245.195 232.985C243.05 232.024 241.208 230.493 239.87 228.56C239.87 228.53 239.805 228.56 239.825 228.585C240.961 230.244 242.426 231.652 244.13 232.72C244.985 233.256 245.899 233.689 246.855 234.01C247.963 234.352 249.092 234.619 250.235 234.81C251.356 234.991 252.462 235.253 253.545 235.595C254.543 235.933 255.481 236.426 256.325 237.055C257.917 238.292 259.199 239.882 260.07 241.7C261.185 244.111 261.882 246.695 262.13 249.34C262.13 249.455 262.315 249.455 262.31 249.34C262 244.945 260.84 240.375 257.455 237.325Z" fill="#263238"/>
<path d="M250.206 233.915C249.879 233.428 249.438 233.028 248.921 232.75C248.327 232.441 247.806 232.01 247.391 231.485C247.391 231.46 247.326 231.485 247.346 231.515C247.721 231.994 248.178 232.404 248.696 232.725C249.264 233.025 249.764 233.438 250.166 233.94C250.181 233.965 250.221 233.94 250.206 233.915Z" fill="#263238"/>
<path d="M253.521 245.035L253.805 250.78L254.676 268.34H267.786L268.656 250.78L268.941 245.035H253.521Z" fill="#455A64"/>
<path d="M253.521 245.035L253.805 250.78H268.656L268.941 245.035H253.521Z" fill="#263238"/>
<path d="M252.605 248.12H269.86V242.64H252.605V248.12Z" fill="#455A64"/>
<path d="M213.18 175H189.315V173.145L213.18 172.375V175Z" fill="#455A64"/>
<path d="M231.935 174.97H216.19C214.85 174.97 216.795 171.145 221.69 169.675C226.585 168.205 233.5 173.535 231.935 174.97Z" fill="#37474F"/>
<path d="M225.756 174.97C225.718 174.527 225.759 174.08 225.876 173.65C225.983 173.217 226.152 172.801 226.376 172.415C226.61 172.034 226.907 171.696 227.256 171.415C227.6 171.129 228.003 170.921 228.436 170.805C228.114 171.083 227.81 171.38 227.526 171.695C227.257 172.007 227.016 172.341 226.806 172.695C226.388 173.421 226.037 174.182 225.756 174.97Z" fill="#263238"/>
<path d="M227.625 171.33C228.11 171.427 228.582 171.582 229.03 171.79C229.483 171.995 229.917 172.241 230.325 172.525C230.741 172.814 231.11 173.165 231.42 173.565C231.751 173.957 231.929 174.457 231.92 174.97C231.743 174.529 231.466 174.135 231.11 173.82C230.772 173.496 230.407 173.2 230.02 172.935C229.265 172.38 228.44 171.89 227.625 171.33Z" fill="#263238"/>
<path d="M243.235 167.565H204.96L211.05 139.07H249.32L243.235 167.565Z" fill="#455A64"/>
<path d="M244.65 167.565H206.375L212.465 139.07H250.735L244.65 167.565Z" fill="#37474F"/>
<path d="M224.005 157.35H223.11L224.47 150.955H225.37L224.005 157.35Z" fill="#263238"/>
<path d="M225.781 157.35H224.881L226.246 150.955H227.141L225.781 157.35Z" fill="#263238"/>
<path d="M227.55 157.35H226.65L228.015 150.955H228.91L227.55 157.35Z" fill="#263238"/>
<path d="M229.321 157.35H228.421L229.786 150.955H230.681L229.321 157.35Z" fill="#263238"/>
<path d="M231.09 157.35H230.195L231.555 150.955H232.455L231.09 157.35Z" fill="#263238"/>
<path d="M232.861 157.35H231.966L233.326 150.955H234.226L232.861 157.35Z" fill="#263238"/>
<path d="M234.63 157.35H233.735L235.095 150.955H235.995L234.63 157.35Z" fill="#263238"/>
<path d="M233.825 175.005H215V173.545L233.825 172.935V175.005Z" fill="#455A64"/>
<path d="M238.94 175.005H228.835L222.75 159.04H232.855L238.94 175.005Z" fill="#455A64"/>
<path d="M240.605 175.005H230.5L224.415 159.04H234.52L240.605 175.005Z" fill="#263238"/>
<path d="M189.36 239.78C189.153 239.78 188.985 239.612 188.985 239.405V229.7C188.985 229.493 189.153 229.325 189.36 229.325V229.325C189.567 229.325 189.735 229.493 189.735 229.7V239.405C189.735 239.612 189.567 239.78 189.36 239.78V239.78Z" fill="white"/>
<path d="M194.375 239.955C194.168 239.955 194 239.787 194 239.58V229.875C194 229.668 194.168 229.5 194.375 229.5V229.5C194.582 229.5 194.75 229.668 194.75 229.875V235.794C194.75 235.87 194.672 235.921 194.603 235.89V235.89C194.536 235.861 194.519 235.774 194.57 235.721L200.493 229.61C200.562 229.54 200.655 229.5 200.753 229.5V229.5C201.073 229.5 201.236 229.883 201.014 230.113L197.233 234.036C197.174 234.097 197.07 234.052 197.075 233.966V233.966C197.08 233.882 197.187 233.849 197.239 233.916L201.488 239.363C201.676 239.604 201.504 239.955 201.199 239.955V239.955C201.086 239.955 200.979 239.903 200.91 239.814L196.76 234.482L195.423 235.873C194.991 236.322 194.75 236.921 194.75 237.544V239.58C194.75 239.787 194.582 239.955 194.375 239.955V239.955Z" fill="white"/>
</svg>
